<?xml version="1.0" encoding="UTF-8"?>
<svg width="121px" height="228px" viewBox="0 0 121 228" version="1.1" xmlns="http://www.w3.org/2000/svg" xmlns:xlink="http://www.w3.org/1999/xlink">
    <!-- Generator: Sketch 52.3 (67297) - http://www.bohemiancoding.com/sketch -->
    <title>Group 43</title>
    <desc>Created with Sketch.</desc>
    <defs>
        <polygon id="path-1" points="0.000145566188 0.00342162498 120.897939 0.00342162498 120.897939 114.663486 0.000145566188 114.663486"></polygon>
        <polygon id="path-3" points="0.289636828 0.340227513 8.77161176 0.340227513 8.77161176 10 0.289636828 10"></polygon>
    </defs>
    <g id="web" stroke="none" stroke-width="1" fill="none" fill-rule="evenodd">
        <g id="Group-43">
            <g id="Group-55">
                <path d="M51.8925359,118.547698 C51.8925359,118.547698 45.4592034,125.141656 40.306005,124.94953 C35.8076242,124.78797 35.5305252,125.063605 34.7055499,125.601776 C34.7055499,125.601776 34.0312405,126.003494 34.2877942,126.631723 C34.5501427,127.26432 34.5875457,127.033441 34.5875457,127.033441 C34.5875457,127.033441 33.7931251,127.587987 34.0517859,128.127249 C34.3014911,128.674699 34.5016767,128.884291 34.5016767,128.884291 C34.5016767,128.884291 34.1745313,129.538174 34.5090519,130.033225 C35.6137603,131.658109 36.7906408,131.411401 38.2303966,131.766725 C40.6442133,132.364935 45.7510529,131.804932 49.0504274,130.175137 C49.0504274,130.175137 63.2377905,123.441997 55.8867651,119.661701 C55.8867651,119.661701 54.1583206,116.843126 51.8925359,118.547698" id="Fill-1" fill="#140304"></path>
                <path d="M81.1074641,114.547698 C81.1074641,114.547698 87.5407966,121.141656 92.693995,120.94953 C97.1923758,120.78797 97.4694748,121.063605 98.2944501,121.601776 C98.2944501,121.601776 98.9687595,122.003494 98.7122058,122.631723 C98.4498573,123.26432 98.4124543,123.033441 98.4124543,123.033441 C98.4124543,123.033441 99.2068749,123.587987 98.9482141,124.127249 C98.6985089,124.674699 98.4983233,124.884291 98.4983233,124.884291 C98.4983233,124.884291 98.8254687,125.538174 98.4909481,126.033225 C97.3862397,127.658109 96.2093592,127.411401 94.7696034,127.766725 C92.3557867,128.364935 87.2489471,127.804932 83.9495726,126.175137 C83.9495726,126.175137 69.7622095,119.441997 77.1132349,115.661701 C77.1132349,115.661701 78.8416794,112.843126 81.1074641,114.547698" id="Fill-3" fill="#140304"></path>
                <path d="M87,17.3375578 C87,17.3375578 89.5647112,1.17158442 100.092136,2.03326229 C100.092136,2.03326229 112.410098,3.53298837 112.334027,11.8953818 C112.334027,11.8953818 116.471409,25.7494729 104.121362,28.2980168 L94.4095106,30 L87,17.3375578 Z" id="Fill-5" fill="#140304"></path>
                <path d="M40.8822095,22.9813681 C40.8822095,22.9813681 48.130693,-1.41293791 25.7111601,0.0644998865 C25.7111601,0.0644998865 18.520425,0.431987129 17.1124122,7.77691775 C17.1124122,7.77691775 9.6780835,23.4793748 33.2473361,30 L40.8822095,22.9813681 Z" id="Fill-7" fill="#140304"></path>
                <path d="M31.1302035,6.40552934 C31.1302035,6.40552934 34.5921977,9.29861881 37,15.4880578 L27.0108961,22 C27.0108961,22 21.4583859,17.5237608 22.0431457,14.0564584 C22.6316955,10.58129 24.3215428,4.35357011 31.1302035,6.40552934" id="Fill-9" fill="#403A39"></path>
                <path d="M91,14.0319758 C91,14.0319758 95.5295057,6.03973581 101.028771,8.45462676 C106.524936,10.8758755 104.725947,23.920949 92.8563379,21.759309 L91,14.0319758 Z" id="Fill-11" fill="#403A39"></path>
                <g id="Group-15" transform="translate(0.000000, 5.000000)">
                    <mask id="mask-2" fill="white">
                        <use xlink:href="#path-1"></use>
                    </mask>
                    <g id="Clip-14"></g>
                    <path d="M11.4569113,93.7315413 C-9.94956696,71.3197294 0.700011304,44.4482385 26.4077765,11.4543165 C32.7560678,3.30672477 82.578607,-11.2787569 101.114229,14.9839725 C111.411329,29.5652339 119.413637,45.803445 120.192772,53.7911972 C121.27809,64.9804862 123.12939,85.4779174 108.013333,97.4120688 C106.299342,98.7614725 55.62612,137.831404 11.4569113,93.7315413" id="Fill-13" fill="#140304" mask="url(#mask-2)"></path>
                </g>
                <path d="M52.4437413,116.771334 C52.4226516,117.821666 50.3901285,138.813136 55.2043873,146.374583 C56.1913868,147.92211 58.9167076,145.828766 60.1151316,145.861703 C61.069442,145.886275 62.1634719,146.777672 63.1921237,146.89635 C67.0689438,147.342833 72.0039413,146.295115 75.5032552,144.747066 C79.3004617,143.067267 80.3944916,139.854057 80.1387785,135.947598 C79.8830655,132.084531 81.996784,128.719706 80.3944916,124.913103 C78.6999315,120.861824 75.8153833,117.353225 73.2561442,113.890634 C72.8311861,113.321813 71.710794,111.815589 70.5814388,111 C61.2444868,120.917243 52.4437413,116.771334 52.4437413,116.771334" id="Fill-16" fill="#140304"></path>
                <path d="M76,137.720708 C75.8622522,135.550498 75.5510006,133 75.5510006,133 C74.7643725,133.340698 71.7139903,135.224298 72.0217249,141 C73.1700144,140.193699 74.5644916,139.071234 76,137.720708" id="Fill-18" fill="#140304"></path>
                <path d="M66,117 C65.0529733,118.880882 60.4434239,124.753706 57.1746377,124.033449 C56.7422995,123.931867 54.5224483,123.306708 53,122.430836 C53.9459973,123.875673 55.106105,126.215833 58.8777417,126.959865 C60.0146884,127.185182 61.2504553,126.575151 64.539829,122.185527 C65.3942117,120.907111 66,117 66,117" id="Fill-20" fill="#FFFFFF"></path>
                <path d="M87.8631609,144 C88.3882392,145.357455 90.5023847,149.518122 87.1300432,148.946405 C87.1195306,148.202074 87.0697339,147.04467 86.1379828,146.741351 C85.4170376,146.507376 84.4980124,146.940903 83.8512089,147.183359 C82.9830869,147.50863 82.0756808,147.952634 81.1234577,148.027965 C79.5227713,148.155678 79.8785409,146.419074 80.6752877,145.659278 C81.3032791,145.060122 82.2007258,144.756304 83.086,144.552261 C84.568281,144.212024 86.3288701,144.057371 87.8631609,144" id="Fill-22" fill="#140304"></path>
                <path d="M76.6613579,145.475736 C74.7825753,144.892324 72.6470775,146.292824 70.6202696,145.728583 C69.383275,145.378328 67.5495211,143.664878 68.1007342,142.105313 C68.3864333,141.28408 69.718661,140.679424 70.3889154,140.233316 C71.5539676,139.45146 71.8344911,139.024523 72.4379788,137.683607 C73.2107123,135.960831 73.68636,134.129766 74.4342501,132.401291 C75.1624724,130.730846 76.6499714,129.415319 77.3176379,127.81223 C77.9459691,126.321057 76.8606227,124.471858 77.4289157,123.037161 C78.3325946,120.756879 79.7062279,122.78846 80.552974,123.890518 C81.9944091,125.768215 83.7562207,128.153677 84.7292541,130.330333 C86.0801143,133.332885 86.3740946,136.711081 85.5144093,140.222953 C84.9254135,142.712559 84.4420022,145.1203 82.8830785,147.209911 C81.9612846,148.444092 79.8330328,148.071558 78.8491304,147.189186 C78.1509272,146.563287 77.5981614,145.766406 76.6613579,145.475736" id="Fill-24" fill="#140304"></path>
                <path d="M69.2465298,146.670357 C69.9811186,145.506419 71.6986747,143.776783 71.9576001,142.475081 C72.2370919,141.09365 71.0843201,140.617987 69.983228,140.068018 C67.9735239,139.079267 65.8478043,138.386111 63.7252488,137.703803 C62.8166368,137.411462 61.8310328,137.200478 60.9472059,136.852273 C60.0860548,136.512746 59.4632628,136.041964 58.4913697,136.003997 C57.5732655,135.968201 56.6641262,136.178642 55.7708072,136.402101 C54.9618631,136.604407 54.0943838,136.858239 53.5828611,137.534582 C53.1810258,138.065567 53.0723931,138.768486 53.0312604,139.439405 C52.9421394,140.883751 53.0207135,142.604709 53.5686229,143.957936 C54.3654381,145.929472 55.6004754,147.668328 56.8086182,149.389286 C57.8959994,150.937226 58.8457441,152.383199 60.8048233,152.805167 C61.3849006,152.929914 61.9850169,152.881642 62.5766958,152.908219 C63.2216362,152.937507 63.8692134,153.05466 64.5094078,152.969507 C65.9516909,152.777506 66.1853038,151.573975 66.8297169,150.484342 C67.5959463,149.188064 68.4439138,147.943312 69.2465298,146.670357" id="Fill-26" fill="#140304"></path>
                <g id="Group-30" transform="translate(58.000000, 149.000000)">
                    <mask id="mask-4" fill="white">
                        <use xlink:href="#path-3"></use>
                    </mask>
                    <g id="Clip-29"></g>
                    <path d="M8.77161176,2.43873684 C8.02567059,3.79084211 7.44014118,5.16768421 7.30461176,6.42663158 C7.25590588,6.85031579 7.82396471,7.96031579 7.67943529,8.21557895 C7.25061176,8.96242105 5.46543529,9.11242105 4.73167059,9.26189474 C3.53890588,9.50505263 2.03272941,10.0961053 0.8352,9.98663158 C0.718729412,9.97610526 0.596964706,9.95715789 0.506435294,9.884 C-0.00285882353,9.46715789 0.496376471,8.26873684 0.867494118,7.934 C1.07767059,7.74505263 3.14714118,6.854 3.16143529,6.90663158 C2.75061176,5.38189474 1.99037647,3.98084211 1.10043529,2.62505263 C0.818258824,2.19452632 0.608082353,1.70136842 0.495317647,1.19978947 C0.4482,0.992421053 0.422258824,0.755578947 0.549317647,0.585052632 C0.690670588,0.394526316 0.959611765,0.364526316 1.19678824,0.354526316 C3.39914118,0.265578947 5.61631765,0.592421053 7.69743529,1.31242105 C7.94255294,1.39715789 8.19402353,1.49294737 8.37455294,1.67873684 C8.55455294,1.86347368 8.64137647,2.16452632 8.50690588,2.38452632" id="Fill-28" fill="#140304" mask="url(#mask-4)"></path>
                </g>
                <path d="M89.8372221,47.1122132 C90.5676522,50.9549186 88.7708929,54.4630983 85.8294461,54.9426704 C82.8836157,55.4339892 79.8873729,52.7123282 79.1640664,48.889541 C78.4292526,45.0544965 80.2325875,41.5493812 83.1762261,41.0555087 C86.1242483,40.573383 89.1122717,43.2853402 89.8372221,47.1122132" id="Fill-31" fill="#FFFFFF"></path>
                <path d="M36.3478896,48.8533717 C34.9191918,52.5817641 31.5864381,54.7697018 28.9069083,53.7495366 C26.2252798,52.7246605 25.219997,48.8706449 26.6513182,45.1396354 C28.0873615,41.4185711 31.4201152,39.2253991 34.098071,40.2534157 C36.7770761,41.2746278 37.7792108,45.1312605 36.3478896,48.8533717" id="Fill-33" fill="#FFFFFF"></path>
                <path d="M57.1062322,49.0246017 C57.1062322,49.0246017 79.9191392,49.6058875 78.9712591,67.2045947 C78.9712591,67.2045947 74.5303911,82.0922364 55.7400929,79.7500123 C55.7400929,79.7500123 33.1331786,76.9177787 37.5792748,60.1272135 C37.5792748,60.1272135 42.7735323,48.3931406 57.1062322,49.0246017" id="Fill-35" fill="#FFFFFF"></path>
                <path d="M51.9186057,55.0597616 C50.8797673,55.6036787 49.7897112,57.0422035 50.034935,58.0067358 C50.277572,58.9798084 53.622756,62.8523492 55.6016191,62.9937997 C57.665845,63.1432568 63.5051725,60.5480406 64.400705,59.8215723 C65.289512,59.0935026 65.1477582,55.446215 64.2522256,55.1483683 C63.3504849,54.849454 59.3436105,56.154535 56.3222875,55.6154218 C54.1318283,55.2172253 52.3112742,54.8531905 51.9186057,55.0597616" id="Fill-37" fill="#150301"></path>
                <path d="M52.6229542,55.0485528 C51.7254059,55.5191602 50.8020214,56.7456424 51.0371305,57.5484105 C51.2712061,58.3573194 54.4526713,61.9156251 56.1940287,61.9976883 C58.010311,62.0814263 62.7626149,59.8662777 63.5289155,59.2393594 C64.2921158,58.6152323 64.0673412,55.298092 63.2891559,55.3287959 C62.1647661,55.3728979 59.2395957,55.9071462 56.5764039,55.5135777 C54.6402419,55.2227278 52.965025,54.8693535 52.6229542,55.0485528" id="Fill-39" fill="#2B1E1D"></path>
                <path d="M52.3277796,56.03023 C51.575593,56.3676222 50.8156731,57.201937 51.0399371,57.7315584 C51.2657478,58.2646479 54.280681,60.9855843 55.7835076,60.999952 C57.350778,61.0098607 61.0111791,59.4829259 61.6514915,59.0494191 C62.2856174,58.6124443 61.9819587,56.2080917 61.3205088,56.4454057 C59.9857512,56.9353922 58.1313198,56.5375569 55.828876,56.3398778 C54.1476692,56.193724 52.6200962,55.906371 52.3277796,56.03023" id="Fill-41" fill="#403A39"></path>
                <path d="M30.6004374,43.2025375 C31.6009289,41.8780985 33.4724538,41.6049024 34.8017201,42.5970098 C36.1241471,43.5969368 36.3933223,45.4726552 35.4021127,46.8039364 C34.4050408,48.1229994 32.5291193,48.3937519 31.1983874,47.4021332 C29.877426,46.4051385 29.6043426,44.5269765 30.6004374,43.2025375" id="Fill-43" fill="#150301"></path>
                <path d="M33.2012061,44.3959196 C33.5310805,43.9601375 34.1598889,43.8677422 34.5973414,44.2006511 C35.0424101,44.5340363 35.1314239,45.1603243 34.7996454,45.6013453 C34.4659628,46.0409375 33.8419146,46.1314278 33.400178,45.8004239 C32.9570133,45.4689437 32.8689516,44.8469422 33.2012061,44.3959196" id="Fill-45" fill="#FFFFFF"></path>
                <path d="M81.6004078,46.2025375 C82.6009048,44.8780985 84.4729285,44.6049024 85.8017135,45.5970098 C87.1241478,46.5964481 87.3933244,48.4721665 86.4021094,49.8039364 C85.4050321,51.1229994 83.5291002,51.3937519 82.1988496,50.4021332 C80.8773924,49.4051385 80.6043075,47.5269765 81.6004078,46.2025375" id="Fill-47" fill="#150301"></path>
                <path d="M84.2013751,47.3959196 C84.5312427,46.9601375 85.1600378,46.8677422 85.5970052,47.2006511 C86.0425406,47.5340363 86.1315524,48.1603243 85.7993049,48.6013453 C85.4656294,49.0409375 84.8415943,49.1314278 84.3998669,48.8004239 C83.9567115,48.4689437 83.8691276,47.8469422 84.2013751,47.3959196" id="Fill-49" fill="#FFFFFF"></path>
                <path d="M52.1516708,66.8305611 C55.3687947,70.5575903 58.3354899,76.7584213 63.8661706,65.894528 C64.2132295,65.2223048 63.8358156,64.8009344 63.3000499,65.0953236 C60.1441419,66.8450733 56.101362,67.2752547 52.7567471,66.0619359 C52.2584192,65.8789793 51.7342896,66.3506239 52.1516708,66.8305611" id="Fill-51" fill="#140304"></path>
                <path d="M85.3277473,134.212169 C85.0848399,133.163336 85.581646,132.035981 86.4428133,131.320612 C93.9729433,125.060757 96.5014886,143.383977 85.961395,137.993984 C84.9523949,137.477471 84.1511302,136.55509 84,135.495549" id="Fill-53" fill="#140304"></path>
            </g>
            <path d="M90,224.501627 C90,226.43302 82.1642825,228 72.4997113,228 C62.8339851,228 55,226.43302 55,224.501627 C55,222.568932 62.8339851,221 72.4997113,221 C82.1642825,221 90,222.568932 90,224.501627" id="Fill-6" fill="#000000" opacity="0.097265625"></path>
        </g>
    </g>
</svg>