<?xml version="1.0" encoding="UTF-8"?>
<svg width="204px" height="365px" viewBox="0 0 204 365" version="1.1" xmlns="http://www.w3.org/2000/svg" xmlns:xlink="http://www.w3.org/1999/xlink">
    <!-- Generator: Sketch 52.3 (67297) - http://www.bohemiancoding.com/sketch -->
    <title>Group 42</title>
    <desc>Created with Sketch.</desc>
    <defs>
        <polygon id="path-1" points="0 0.0193600658 179.845129 0.0193600658 179.845129 189.900219 0 189.900219"></polygon>
        <polygon id="path-3" points="0.006 0.406821705 2.406 0.406821705 2.406 81.7028295 0.006 81.7028295"></polygon>
        <path d="M31.2660003,109.251917 C31.5720003,109.251917 31.8270003,109.370917 32.0310003,109.574917 C32.2180003,109.812917 32.3200003,110.067917 32.3200003,110.373917 C32.3200003,110.951917 32.0480003,111.308917 31.5210003,111.444917 C30.6880003,111.699917 29.7870003,111.903917 28.8010003,112.073917 L28.8010003,115.286917 L31.7250003,115.286917 C32.1330003,115.286917 32.4220003,115.371917 32.6090003,115.541917 C32.7790003,115.694917 32.8640003,115.983917 32.8640003,116.425917 C32.8640003,116.765917 32.7790003,117.020917 32.6430003,117.190917 C32.4390003,117.428917 32.1330003,117.547917 31.7250003,117.547917 L28.8010003,117.547917 L28.8010003,121.066917 L31.1980003,121.066917 C31.6060003,121.066917 31.8950003,121.151917 32.0820003,121.321917 C32.2350003,121.457917 32.3200003,121.763917 32.3200003,122.205917 C32.3200003,122.545917 32.2520003,122.783917 32.1160003,122.953917 C31.9120003,123.191917 31.6060003,123.327917 31.1980003,123.327917 L24.0920003,123.327917 C23.7180003,123.327917 23.4290003,123.225917 23.2250003,123.055917 C23.0550003,122.885917 22.9700003,122.613917 22.9700003,122.205917 C22.9700003,121.763917 23.0550003,121.474917 23.2250003,121.321917 C23.3950003,121.151917 23.6840003,121.066917 24.0920003,121.066917 L26.4890003,121.066917 L26.4890003,117.547917 L23.4290003,117.547917 C23.0550003,117.547917 22.7660003,117.462917 22.5620003,117.275917 C22.3750003,117.122917 22.2900003,116.833917 22.2900003,116.425917 C22.2900003,115.983917 22.3750003,115.694917 22.5620003,115.541917 C22.7320003,115.371917 23.0210003,115.286917 23.4290003,115.286917 L26.4890003,115.286917 L26.4890003,112.396917 C25.4690003,112.515917 24.6360003,112.566917 24.0240003,112.566917 C23.2760003,112.566917 22.9020003,112.124917 22.9020003,111.240917 C22.9190003,110.679917 23.2760003,110.373917 23.9560003,110.305917 C26.5230003,110.186917 28.8010003,109.846917 30.8070003,109.302917 C30.9940003,109.268917 31.1470003,109.251917 31.2660003,109.251917 Z M21.0320003,108.911917 C21.4060003,108.911917 21.7120003,108.996917 21.9500003,109.166917 C22.2220003,109.268917 22.3580003,109.506917 22.3580003,109.914917 C22.3580003,110.152917 22.3070003,110.390917 22.2390003,110.611917 C22.1030003,111.189917 21.9330003,111.733917 21.7630003,112.260917 L21.7630003,123.123917 C21.7630003,123.531917 21.6610003,123.820917 21.4570003,123.990917 C21.2870003,124.160917 21.0150003,124.262917 20.6410003,124.262917 C20.2670003,124.262917 19.9950003,124.160917 19.8250003,123.990917 C19.6040003,123.820917 19.5020003,123.531917 19.5020003,123.123917 L19.5020003,116.799917 C19.4340003,116.918917 19.3660003,117.020917 19.3150003,117.088917 C19.1620003,117.309917 18.9240003,117.411917 18.5840003,117.411917 C18.1930003,117.411917 17.9040003,117.309917 17.7000003,117.105917 C17.4790003,116.935917 17.3770003,116.680917 17.3770003,116.357917 C17.3770003,116.153917 17.4450003,115.898917 17.6150003,115.609917 C18.7200003,113.960917 19.6210003,111.954917 20.3010003,109.574917 C20.4200003,109.132917 20.6580003,108.911917 21.0320003,108.911917 Z M40.6010002,109.506917 L44.6640002,109.506917 C45.1230002,109.506917 45.4970002,109.642917 45.7860002,109.914917 C46.0580002,110.186917 46.1940002,110.526917 46.1940002,110.900917 C46.1940002,111.274917 46.0410002,111.733917 45.7690002,112.294917 C45.2930002,113.110917 44.7490002,113.824917 44.1540002,114.436917 L44.8510002,114.436917 C45.5310002,114.436917 46.0240002,114.555917 46.2960002,114.759917 C46.4830002,114.929917 46.6190002,115.133917 46.6870002,115.371917 C46.7550002,115.320917 46.8400002,115.269917 46.9250002,115.218917 C47.4520002,115.048917 47.9960002,114.793917 48.5570002,114.453917 C48.2510002,114.181917 47.9620002,113.875917 47.6900002,113.535917 L47.5200002,113.705917 C47.3330002,113.841917 47.1290002,113.892917 46.9250002,113.892917 C46.5850002,113.892917 46.3130002,113.756917 46.0750002,113.484917 C45.8710002,113.280917 45.7860002,113.059917 45.7860002,112.838917 C45.7860002,112.668917 45.8710002,112.515917 46.0580002,112.362917 C47.0780002,111.240917 47.8600002,110.152917 48.4380002,109.115917 C48.6760002,108.945917 48.8970002,108.843917 49.1010002,108.843917 C49.4070002,108.843917 49.6960002,108.928917 49.9340002,109.081917 C50.1720002,109.285917 50.3080002,109.489917 50.3080002,109.710917 C50.3080002,109.846917 50.2740002,109.982917 50.2060002,110.118917 L53.8270002,110.118917 C54.1670002,110.118917 54.3880002,110.186917 54.4900002,110.288917 C54.6260002,110.424917 54.6940002,110.662917 54.6940002,110.968917 C54.6940002,111.291917 54.6430002,111.512917 54.5410002,111.648917 C54.4050002,111.818917 54.1670002,111.903917 53.8270002,111.903917 L53.4870002,111.903917 C53.5210002,112.022917 53.5550002,112.141917 53.5550002,112.243917 C53.5550002,112.532917 53.4700002,112.787917 53.3000002,113.025917 C52.9090002,113.535917 52.4330002,114.028917 51.8890002,114.487917 C52.5180002,114.793917 53.1810002,115.014917 53.8950002,115.150917 C54.4560002,115.218917 54.7450002,115.473917 54.7450002,115.881917 C54.7450002,116.238917 54.6600002,116.527917 54.5070002,116.765917 C54.3880002,117.071917 54.0990002,117.224917 53.6230002,117.224917 C53.2320002,117.224917 52.6540002,117.071917 51.8720002,116.731917 C51.2600002,116.476917 50.6820002,116.153917 50.1380002,115.762917 C49.4070002,116.238917 48.6930002,116.612917 47.9790002,116.884917 C47.7580002,116.986917 47.5200002,117.020917 47.2480002,117.020917 C47.0610002,117.020917 46.8910002,116.918917 46.7210002,116.714917 L46.7210002,116.765917 C46.6530002,117.105917 46.5850002,117.428917 46.4830002,117.734917 C46.5510002,117.700917 46.6360002,117.683917 46.7210002,117.683917 L48.4890002,117.683917 C48.4890002,117.581917 48.5060002,117.496917 48.5060002,117.411917 C48.5400002,117.139917 48.6250002,116.952917 48.7950002,116.816917 C48.9310002,116.714917 49.1350002,116.646917 49.4410002,116.612917 C49.7980002,116.629917 50.0700002,116.714917 50.2570002,116.884917 C50.4100002,116.986917 50.4950002,117.190917 50.4950002,117.479917 L50.4950002,117.683917 L52.6200002,117.683917 C53.2320002,117.683917 53.6910002,117.819917 53.9630002,118.074917 C54.2180002,118.346917 54.3540002,118.822917 54.3540002,119.468917 C54.3540002,120.624917 54.3370002,121.508917 54.3030002,122.120917 C54.2520002,122.885917 53.9800002,123.480917 53.5040002,123.888917 C53.1470002,124.126917 52.7900002,124.262917 52.4330002,124.262917 C51.5320002,124.228917 50.8180002,124.092917 50.3080002,123.854917 C50.0190002,123.684917 49.8660002,123.344917 49.8320002,122.868917 C49.8320002,122.630917 49.9170002,122.392917 50.0870002,122.137917 C50.1890002,122.001917 50.3250002,121.933917 50.4950002,121.933917 C50.5460002,121.933917 50.6310002,121.950917 50.7670002,121.967917 C51.0220002,122.069917 51.3280002,122.137917 51.7020002,122.205917 C51.9740002,122.205917 52.1270002,122.069917 52.1610002,121.780917 C52.1950002,121.372917 52.2290002,120.760917 52.2290002,119.944917 C52.2290002,119.774917 52.1780002,119.672917 52.0930002,119.672917 L50.1890002,119.672917 C49.9680002,120.539917 49.6620002,121.270917 49.2540002,121.865917 C48.8120002,122.681917 48.1150002,123.378917 47.1970002,123.990917 C46.9250002,124.160917 46.6530002,124.262917 46.3810002,124.262917 C46.0240002,124.262917 45.7350002,124.143917 45.5140002,123.905917 C45.3100002,123.667917 45.1910002,123.429917 45.1910002,123.191917 C45.1910002,122.868917 45.3270002,122.630917 45.5820002,122.460917 C46.6190002,121.899917 47.3500002,121.202917 47.7750002,120.386917 C47.8940002,120.165917 47.9960002,119.927917 48.0810002,119.672917 L46.7210002,119.672917 C46.2450002,119.638917 45.9730002,119.366917 45.9390002,118.839917 C45.8200002,118.907917 45.7010002,118.941917 45.5820002,118.941917 C45.2250002,118.941917 44.9530002,118.890917 44.7660002,118.771917 C44.5620002,118.669917 44.4600002,118.414917 44.4600002,118.006917 C44.4600002,117.989917 44.4770002,117.921917 44.5110002,117.785917 C44.7830002,117.156917 44.9190002,116.765917 44.9190002,116.612917 C44.9190002,116.493917 44.8680002,116.425917 44.8000002,116.425917 L44.1200002,116.425917 L44.1200002,122.664917 C44.1200002,123.616917 43.5420002,124.126917 42.4030002,124.194917 C42.0970002,124.194917 41.8080002,124.160917 41.5530002,124.126917 C41.2980002,124.092917 41.0770002,124.024917 40.8900002,123.956917 C40.7540002,123.820917 40.6520002,123.684917 40.5840002,123.531917 C40.5160002,123.327917 40.4820002,123.055917 40.4820002,122.732917 C40.4820002,122.494917 40.5330002,122.273917 40.6690002,122.069917 C40.8050002,122.001917 40.9580002,121.950917 41.1110002,121.933917 L41.7400002,121.933917 C41.9950002,121.933917 42.1310002,121.848917 42.1310002,121.661917 L42.1310002,118.601917 C41.5360002,119.689917 41.0430002,120.369917 40.6690002,120.607917 C40.5160002,120.828917 40.2780002,120.930917 39.9380002,120.930917 C39.6320002,120.930917 39.4110002,120.828917 39.2410002,120.590917 C39.0370002,120.352917 38.9520002,120.080917 38.9520002,119.740917 C38.9520002,119.587917 39.0200002,119.400917 39.1730002,119.179917 C39.9720002,118.397917 40.7370002,117.479917 41.4510002,116.425917 L39.9380002,116.425917 C39.6660002,116.425917 39.4280002,116.323917 39.2580002,116.119917 C39.0880002,115.949917 39.0200002,115.728917 39.0200002,115.422917 C39.0200002,115.133917 39.0880002,114.878917 39.2580002,114.657917 C39.3940002,114.521917 39.6150002,114.436917 39.9380002,114.436917 L41.1450002,114.436917 C40.8390002,114.045917 40.4650002,113.603917 40.0570002,113.093917 C40.0230002,113.042917 40.0060002,112.974917 40.0060002,112.906917 C40.0060002,112.804917 40.0230002,112.702917 40.0740002,112.566917 C40.1590002,112.413917 40.3120002,112.294917 40.5330002,112.192917 C40.6690002,112.141917 40.8050002,112.107917 40.9410002,112.107917 C41.2980002,112.107917 41.5700002,112.226917 41.7400002,112.430917 C41.9950002,112.600917 42.2840002,112.906917 42.6240002,113.331917 C43.3550002,112.566917 43.7290002,112.022917 43.7290002,111.699917 C43.7290002,111.631917 43.6780002,111.580917 43.5930002,111.580917 L40.6010002,111.580917 C40.2610002,111.580917 40.0230002,111.478917 39.8700002,111.257917 C39.7000002,111.104917 39.6150002,110.849917 39.6150002,110.509917 C39.6150002,110.169917 39.7000002,109.914917 39.9040002,109.744917 C40.0400002,109.591917 40.2610002,109.506917 40.6010002,109.506917 Z M48.8970002,112.175917 C49.3220002,112.668917 49.7300002,113.076917 50.1210002,113.382917 C50.7330002,112.872917 51.2430002,112.379917 51.6340002,111.903917 L49.1010002,111.903917 C49.0330002,112.005917 48.9650002,112.107917 48.8970002,112.175917 Z M71.7300001,109.047917 C72.1040001,109.047917 72.3760001,109.132917 72.5460001,109.268917 C72.7500001,109.438917 72.8690001,109.676917 72.8690001,109.982917 L72.8690001,111.580917 L75.2490001,111.580917 C75.6230001,111.580917 75.8950001,111.665917 76.0310001,111.801917 C76.1670001,111.971917 76.2520001,112.243917 76.2520001,112.634917 C76.2520001,112.991917 76.1840001,113.246917 76.0820001,113.399917 C75.9120001,113.603917 75.6230001,113.705917 75.2490001,113.705917 L72.8690001,113.705917 L72.8690001,116.085917 L74.7220001,116.085917 C75.5040001,116.085917 75.9120001,116.493917 75.9120001,117.275917 L75.9120001,122.800917 C75.9120001,123.582917 75.5040001,123.990917 74.7220001,123.990917 L69.5370001,123.990917 C68.7380001,123.990917 68.3470001,123.582917 68.3470001,122.800917 L68.3470001,117.275917 C68.3470001,116.493917 68.7380001,116.085917 69.5370001,116.085917 L70.6080001,116.085917 L70.6080001,109.982917 C70.6080001,109.727917 70.7100001,109.489917 70.9140001,109.251917 C71.0840001,109.115917 71.3560001,109.047917 71.7300001,109.047917 Z M73.4640001,121.865917 C73.6340001,121.865917 73.7190001,121.780917 73.7190001,121.593917 L73.7190001,118.482917 C73.7190001,118.312917 73.6340001,118.210917 73.4640001,118.210917 L70.8120001,118.210917 C70.6250001,118.210917 70.5400001,118.312917 70.5400001,118.482917 L70.5400001,121.593917 C70.5400001,121.780917 70.6250001,121.865917 70.8120001,121.865917 L73.4640001,121.865917 Z M62.7030001,109.574917 L66.4940001,109.574917 C67.3270001,109.574917 67.7520001,109.999917 67.7520001,110.849917 L67.7520001,119.400917 C67.7520001,120.182917 67.4120001,120.590917 66.7320001,120.658917 L66.8850001,120.811917 C66.9190001,120.879917 66.9360001,120.930917 66.9700001,120.981917 C67.1060001,121.236917 67.2590001,121.491917 67.4290001,121.763917 C67.6670001,122.120917 67.8710001,122.443917 68.0750001,122.732917 C68.2110001,122.868917 68.2790001,123.021917 68.2790001,123.191917 C68.2790001,123.293917 68.2620001,123.395917 68.2450001,123.497917 C68.1430001,123.667917 68.0240001,123.786917 67.8880001,123.888917 C67.6840001,124.041917 67.3950001,124.126917 67.0210001,124.126917 C66.8170001,124.126917 66.6300001,124.058917 66.4940001,123.922917 C66.2390001,123.667917 65.9670001,123.293917 65.6950001,122.800917 C65.4400001,122.324917 65.2700001,121.916917 65.1680001,121.593917 C65.1170001,121.474917 65.1000001,121.372917 65.1000001,121.270917 C65.1000001,121.066917 65.1340001,120.913917 65.2190001,120.811917 C65.2700001,120.760917 65.3210001,120.709917 65.3890001,120.675917 L63.8760001,120.675917 C64.0630001,120.845917 64.1650001,121.015917 64.1650001,121.202917 C64.1650001,121.440917 64.1140001,121.661917 64.0460001,121.831917 C63.9440001,122.103917 63.8080001,122.392917 63.6040001,122.698917 C63.2980001,123.276917 62.9750001,123.718917 62.6350001,123.990917 C62.4820001,124.109917 62.3120001,124.177917 62.1080001,124.194917 C61.8190001,124.194917 61.5470001,124.075917 61.2920001,123.854917 C61.0710001,123.667917 60.9690001,123.446917 60.9690001,123.191917 C60.9690001,123.089917 61.0370001,122.953917 61.1730001,122.800917 C61.2750001,122.664917 61.3770001,122.511917 61.5130001,122.341917 L62.2270001,121.321917 C62.4140001,121.032917 62.5500001,120.811917 62.6520001,120.675917 C61.8360001,120.658917 61.4450001,120.233917 61.4450001,119.400917 L61.4450001,110.849917 C61.4450001,109.999917 61.8530001,109.574917 62.7030001,109.574917 Z M65.4910001,118.873917 C65.6610001,118.873917 65.7630001,118.788917 65.7630001,118.618917 L65.7630001,117.547917 L63.4340001,117.547917 L63.4340001,118.618917 C63.4340001,118.788917 63.5190001,118.873917 63.7060001,118.873917 L65.4910001,118.873917 Z M63.4340001,115.694917 L65.7630001,115.694917 L65.7630001,114.436917 L63.4340001,114.436917 L63.4340001,115.694917 Z M63.4340001,112.566917 L65.7630001,112.566917 L65.7630001,111.631917 C65.7630001,111.461917 65.6610001,111.376917 65.4910001,111.376917 L63.7060001,111.376917 C63.5190001,111.376917 63.4340001,111.461917 63.4340001,111.631917 L63.4340001,112.566917 Z M89.65,113.892917 L87.78,113.892917 C87.253,113.892917 86.998,113.637917 86.998,113.093917 L86.998,112.175917 C86.998,111.648917 87.253,111.376917 87.78,111.376917 L93.424,111.376917 C93.951,111.376917 94.223,111.648917 94.223,112.175917 L94.223,113.093917 C94.223,113.637917 93.951,113.892917 93.424,113.892917 L91.571,113.892917 L91.571,114.368917 L94.767,114.368917 C94.937,114.368917 95.056,114.419917 95.158,114.487917 C95.243,114.555917 95.294,114.725917 95.294,114.963917 C95.294,115.167917 95.26,115.303917 95.209,115.371917 C95.107,115.507917 94.971,115.558917 94.767,115.558917 L86.59,115.558917 C86.42,115.558917 86.301,115.524917 86.216,115.422917 C86.114,115.337917 86.063,115.184917 86.063,114.963917 C86.063,114.725917 86.114,114.572917 86.216,114.470917 C86.284,114.402917 86.403,114.368917 86.59,114.368917 L89.65,114.368917 L89.65,113.892917 Z M87.593,116.017917 L93.696,116.017917 C94.478,116.017917 94.886,116.425917 94.886,117.224917 L94.886,120.403917 C94.886,121.202917 94.478,121.593917 93.696,121.593917 L87.593,121.593917 C86.777,121.593917 86.386,121.202917 86.386,120.403917 L86.386,117.224917 C86.386,116.425917 86.777,116.017917 87.593,116.017917 Z M92.829,120.403917 C93.05,120.403917 93.169,120.301917 93.169,120.080917 L93.169,117.547917 C93.169,117.343917 93.05,117.224917 92.829,117.224917 L88.46,117.224917 C88.222,117.224917 88.12,117.343917 88.12,117.547917 L88.12,120.080917 C88.12,120.301917 88.222,120.403917 88.46,120.403917 L92.829,120.403917 Z M89.446,117.615917 L91.843,117.615917 C92.37,117.615917 92.642,117.887917 92.642,118.414917 L92.642,119.213917 C92.642,119.757917 92.37,120.012917 91.843,120.012917 L89.446,120.012917 C88.902,120.012917 88.647,119.757917 88.647,119.213917 L88.647,118.414917 C88.647,117.887917 88.902,117.615917 89.446,117.615917 Z M91.112,119.145917 C91.231,119.145917 91.299,119.077917 91.299,118.941917 L91.299,118.686917 C91.299,118.550917 91.231,118.482917 91.112,118.482917 L90.177,118.482917 C90.041,118.482917 89.973,118.550917 89.973,118.686917 L89.973,118.941917 C89.973,119.077917 90.041,119.145917 90.177,119.145917 L91.112,119.145917 Z M85.196,109.183917 L95.957,109.183917 C97.232,109.183917 97.878,109.829917 97.878,111.104917 L97.878,122.069917 C97.878,123.344917 97.232,123.990917 95.957,123.990917 L85.196,123.990917 C83.904,123.990917 83.275,123.344917 83.275,122.069917 L83.275,111.104917 C83.275,109.829917 83.904,109.183917 85.196,109.183917 Z M95.362,122.205917 C95.617,122.205917 95.753,122.069917 95.753,121.797917 L95.753,111.376917 C95.753,111.104917 95.617,110.968917 95.362,110.968917 L85.791,110.968917 C85.519,110.968917 85.4,111.104917 85.4,111.376917 L85.4,121.797917 C85.4,122.069917 85.519,122.205917 85.791,122.205917 L95.362,122.205917 Z M92.166,112.906917 C92.302,112.906917 92.37,112.838917 92.37,112.702917 L92.37,112.566917 C92.37,112.430917 92.302,112.362917 92.166,112.362917 L89.055,112.362917 C88.919,112.362917 88.851,112.430917 88.851,112.566917 L88.851,112.702917 C88.851,112.838917 88.919,112.906917 89.055,112.906917 L92.166,112.906917 Z M111.276,108.775917 C111.752,108.775917 112.075,108.877917 112.245,109.064917 C112.432,109.251917 112.534,109.557917 112.534,109.982917 L112.534,112.974917 L118.314,112.974917 C118.722,112.974917 119.011,113.059917 119.147,113.212917 C119.3,113.382917 119.385,113.688917 119.385,114.096917 C119.385,114.470917 119.317,114.742917 119.198,114.912917 C119.028,115.116917 118.722,115.218917 118.314,115.218917 L112.534,115.218917 L112.534,120.998917 L118.977,120.998917 C119.402,120.998917 119.708,121.083917 119.912,121.253917 C120.082,121.406917 120.184,121.695917 120.184,122.137917 C120.184,122.511917 120.099,122.766917 119.963,122.936917 C119.742,123.191917 119.419,123.327917 118.977,123.327917 L105.836,123.327917 C105.428,123.327917 105.122,123.225917 104.918,123.038917 C104.714,122.868917 104.629,122.579917 104.629,122.137917 C104.629,121.695917 104.714,121.406917 104.918,121.253917 C105.105,121.083917 105.411,120.998917 105.836,120.998917 L110.086,120.998917 L110.086,109.982917 C110.086,109.557917 110.171,109.251917 110.358,109.064917 C110.528,108.877917 110.834,108.775917 111.276,108.775917 Z M129.655,108.979917 C129.859,108.979917 130.097,109.047917 130.369,109.166917 C130.641,109.336917 130.777,109.574917 130.777,109.846917 C130.777,110.050917 130.709,110.254917 130.59,110.458917 C130.216,111.172917 129.757,111.852917 129.213,112.515917 C129.451,112.770917 129.706,113.025917 129.944,113.297917 C130.488,112.515917 130.964,111.699917 131.389,110.849917 C131.542,110.543917 131.78,110.390917 132.12,110.373917 C132.307,110.373917 132.528,110.441917 132.783,110.560917 C133.038,110.730917 133.174,110.968917 133.174,111.240917 C133.174,111.614917 133.038,111.971917 132.783,112.311917 C132.069,113.501917 131.168,114.657917 130.097,115.813917 C130.675,115.779917 131.185,115.745917 131.627,115.677917 C131.576,115.473917 131.542,115.303917 131.508,115.133917 C131.457,115.014917 131.44,114.929917 131.44,114.895917 C131.457,114.504917 131.678,114.283917 132.12,114.232917 C132.545,114.232917 132.834,114.419917 132.97,114.759917 C133.31,115.524917 133.48,116.391917 133.497,117.343917 L134.959,117.343917 C135.299,117.343917 135.588,117.428917 135.792,117.564917 C135.996,117.734917 136.098,117.955917 136.098,118.210917 C136.098,118.584917 136.013,118.958917 135.86,119.332917 C135.367,120.590917 134.602,121.814917 133.565,122.987917 C133.429,123.208917 133.157,123.327917 132.783,123.327917 C132.562,123.327917 132.341,123.225917 132.12,123.055917 C131.984,122.868917 131.916,122.698917 131.916,122.528917 C131.916,122.392917 131.95,122.239917 132.035,122.069917 C131.984,122.052917 131.95,122.035917 131.933,122.001917 C131.831,121.950917 131.746,121.831917 131.712,121.661917 C131.593,120.794917 131.491,120.114917 131.389,119.638917 C131.338,119.451917 131.321,119.247917 131.321,119.009917 C131.321,118.856917 131.406,118.737917 131.559,118.635917 C131.678,118.550917 131.848,118.499917 132.052,118.482917 C132.29,118.499917 132.494,118.584917 132.647,118.737917 C132.8,119.009917 132.953,119.553917 133.106,120.386917 C133.14,120.522917 133.157,120.641917 133.174,120.743917 C133.531,120.267917 133.82,119.808917 134.058,119.366917 C134.126,119.213917 134.177,119.094917 134.177,119.009917 C134.177,118.975917 134.126,118.941917 134.041,118.941917 L133.378,118.941917 C133.106,118.941917 132.919,118.856917 132.783,118.686917 C132.715,118.584917 132.664,118.448917 132.647,118.278917 C132.205,118.261917 131.95,118.040917 131.916,117.615917 C131.899,117.496917 131.882,117.377917 131.882,117.275917 C131.576,117.343917 131.287,117.411917 130.981,117.445917 L130.981,123.327917 C130.981,123.650917 130.896,123.871917 130.726,124.007917 C130.556,124.177917 130.318,124.262917 129.995,124.262917 C129.672,124.262917 129.434,124.177917 129.281,124.007917 C129.128,123.871917 129.06,123.650917 129.06,123.327917 L129.06,117.700917 C128.55,117.734917 128.04,117.751917 127.53,117.751917 C127.19,117.751917 126.952,117.683917 126.799,117.547917 C126.629,117.377917 126.527,117.122917 126.527,116.816917 C126.527,116.510917 126.612,116.272917 126.782,116.102917 C126.901,115.966917 127.156,115.898917 127.53,115.881917 L127.802,115.881917 C128.159,115.541917 128.499,115.167917 128.805,114.793917 C128.125,114.164917 127.428,113.603917 126.731,113.093917 C126.459,112.855917 126.34,112.566917 126.34,112.243917 C126.34,111.971917 126.408,111.750917 126.578,111.580917 C126.782,111.410917 127.003,111.308917 127.258,111.308917 C127.462,111.308917 127.666,111.359917 127.853,111.444917 C128.261,110.866917 128.618,110.220917 128.924,109.506917 C129.077,109.183917 129.315,109.013917 129.655,108.979917 Z M127.87,118.414917 C128.074,118.414917 128.261,118.482917 128.448,118.601917 C128.618,118.754917 128.72,118.941917 128.72,119.145917 C128.72,119.519917 128.669,119.995917 128.567,120.539917 C128.397,121.559917 128.227,122.324917 128.057,122.800917 C127.972,123.106917 127.768,123.259917 127.462,123.259917 C127.19,123.259917 126.935,123.191917 126.714,123.055917 C126.51,122.936917 126.408,122.732917 126.408,122.460917 C126.408,122.273917 126.425,122.052917 126.493,121.797917 C126.697,121.202917 126.918,120.267917 127.139,119.009917 C127.207,118.618917 127.462,118.414917 127.87,118.414917 Z M134.636,110.237917 L135.962,110.237917 C136.03,110.016917 136.098,109.778917 136.166,109.506917 C136.336,109.132917 136.71,108.928917 137.288,108.911917 C137.628,108.911917 137.9,108.979917 138.104,109.098917 C138.342,109.234917 138.461,109.438917 138.495,109.710917 C138.495,109.795917 138.444,109.965917 138.376,110.237917 L139.94,110.237917 C140.739,110.237917 141.147,110.645917 141.147,111.444917 L141.147,115.286917 C141.147,116.102917 140.739,116.493917 139.94,116.493917 L138.223,116.493917 L138.223,116.527917 C138.444,117.071917 138.699,117.564917 138.971,118.040917 C139.515,117.666917 139.974,117.275917 140.348,116.884917 C140.569,116.748917 140.773,116.680917 140.943,116.680917 C141.215,116.680917 141.419,116.782917 141.589,116.986917 C141.725,117.139917 141.81,117.377917 141.81,117.683917 C141.81,117.904917 141.708,118.108917 141.538,118.278917 C141.113,118.652917 140.552,119.026917 139.838,119.400917 C140.416,120.250917 141.096,121.032917 141.878,121.729917 C142.048,121.967917 142.133,122.188917 142.133,122.392917 C142.133,122.630917 142.031,122.834917 141.861,123.021917 C141.708,123.225917 141.47,123.327917 141.147,123.327917 C140.79,123.327917 140.501,123.191917 140.28,122.936917 C139.617,122.290917 138.937,121.406917 138.223,120.284917 L138.223,122.528917 C138.223,123.174917 138.087,123.599917 137.832,123.820917 C137.543,124.109917 137.101,124.262917 136.489,124.262917 C135.979,124.262917 135.486,124.143917 135.027,123.922917 C134.636,123.735917 134.432,123.429917 134.432,122.987917 C134.432,122.783917 134.5,122.545917 134.653,122.222917 C134.789,122.001917 135.01,121.882917 135.299,121.865917 C135.333,121.865917 135.384,121.882917 135.452,121.916917 C135.622,122.001917 135.775,122.052917 135.894,122.069917 C136.166,122.069917 136.302,121.933917 136.302,121.661917 L136.302,116.493917 L134.636,116.493917 C133.837,116.493917 133.446,116.102917 133.446,115.286917 L133.446,111.444917 C133.446,110.645917 133.837,110.237917 134.636,110.237917 Z M138.818,115.031917 C138.988,115.031917 139.09,114.946917 139.09,114.759917 L139.09,114.096917 L135.503,114.096917 L135.503,114.759917 C135.503,114.946917 135.588,115.031917 135.758,115.031917 L138.818,115.031917 Z M135.503,112.634917 L139.09,112.634917 L139.09,111.971917 C139.09,111.801917 138.988,111.699917 138.818,111.699917 L135.758,111.699917 C135.588,111.699917 135.503,111.801917 135.503,111.971917 L135.503,112.634917 Z M149.751,110.118917 L151.621,110.118917 C152.369,110.118917 152.743,110.492917 152.743,111.240917 L152.743,114.640917 C152.76,114.623917 152.777,114.606917 152.794,114.572917 C152.93,114.436917 153.1,114.368917 153.27,114.368917 C153.44,114.368917 153.61,114.402917 153.78,114.470917 C154.035,114.147917 154.273,113.807917 154.477,113.433917 L154.409,113.433917 C153.78,113.433917 153.474,113.127917 153.474,112.498917 L153.474,110.237917 C153.474,109.625917 153.78,109.319917 154.409,109.319917 L162.246,109.319917 C162.858,109.319917 163.164,109.625917 163.164,110.237917 L163.164,112.498917 C163.164,113.059917 162.909,113.365917 162.433,113.416917 C162.467,113.433917 162.484,113.450917 162.501,113.450917 C162.671,113.569917 162.773,113.756917 162.773,114.028917 C162.773,114.062917 162.756,114.113917 162.756,114.147917 C162.722,114.334917 162.671,114.521917 162.637,114.691917 L163.113,114.691917 C163.368,114.691917 163.538,114.742917 163.623,114.844917 C163.725,114.963917 163.776,115.150917 163.776,115.422917 C163.776,115.677917 163.725,115.847917 163.657,115.949917 C163.555,116.085917 163.368,116.153917 163.113,116.153917 L162.382,116.153917 L162.382,117.224917 L162.977,117.224917 C163.232,117.224917 163.402,117.275917 163.487,117.360917 C163.589,117.462917 163.64,117.649917 163.64,117.887917 C163.64,118.125917 163.589,118.312917 163.521,118.414917 C163.419,118.550917 163.232,118.618917 162.977,118.618917 L162.382,118.618917 L162.382,119.672917 L162.977,119.672917 C163.232,119.672917 163.402,119.723917 163.487,119.808917 C163.589,119.910917 163.64,120.097917 163.64,120.335917 C163.64,120.590917 163.589,120.760917 163.521,120.862917 C163.419,120.998917 163.232,121.066917 162.977,121.066917 L162.382,121.066917 L162.382,122.137917 L163.232,122.137917 C163.759,122.137917 164.031,122.409917 164.031,122.936917 C164.031,123.446917 163.759,123.718917 163.232,123.718917 L159.458,123.718917 C158.744,123.718917 158.387,123.361917 158.387,122.664917 L158.387,116.663917 C158.319,116.680917 158.268,116.680917 158.2,116.680917 C158.03,116.680917 157.86,116.612917 157.724,116.459917 C157.588,116.374917 157.52,116.221917 157.52,116.017917 C157.52,115.915917 157.588,115.762917 157.758,115.592917 C158.234,115.031917 158.642,114.351917 158.982,113.569917 C158.999,113.501917 159.016,113.467917 159.033,113.433917 L156.007,113.433917 C155.973,113.569917 155.922,113.688917 155.854,113.807917 C155.582,114.283917 155.259,114.742917 154.851,115.184917 C155.055,115.354917 155.259,115.524917 155.446,115.694917 C155.684,115.337917 155.922,114.963917 156.126,114.555917 C156.245,114.317917 156.432,114.181917 156.67,114.164917 C156.806,114.164917 156.993,114.215917 157.214,114.317917 C157.418,114.436917 157.52,114.606917 157.52,114.827917 C157.52,115.082917 157.418,115.337917 157.231,115.575917 C156.721,116.357917 156.109,117.139917 155.361,117.887917 C155.803,117.853917 156.228,117.802917 156.67,117.734917 C156.619,117.564917 156.568,117.394917 156.534,117.258917 C156.483,117.173917 156.466,117.122917 156.466,117.088917 C156.466,116.765917 156.653,116.595917 156.993,116.561917 C157.316,116.561917 157.537,116.697917 157.656,116.952917 C157.962,117.547917 158.132,118.227917 158.132,119.009917 C158.098,119.349917 157.877,119.536917 157.469,119.536917 C157.129,119.536917 156.959,119.383917 156.925,119.077917 C156.908,119.009917 156.891,118.958917 156.891,118.907917 C156.636,118.975917 156.381,119.043917 156.126,119.077917 L156.126,123.463917 C156.126,123.701917 156.058,123.888917 155.939,123.990917 C155.803,124.126917 155.599,124.194917 155.344,124.194917 C155.089,124.194917 154.902,124.126917 154.783,123.990917 C154.664,123.888917 154.613,123.701917 154.613,123.463917 L154.613,119.298917 C154.205,119.349917 153.78,119.383917 153.338,119.400917 C153.083,119.400917 152.896,119.349917 152.794,119.230917 C152.76,119.213917 152.743,119.196917 152.743,119.162917 L152.743,121.661917 C152.743,121.865917 152.709,122.018917 152.675,122.137917 C152.862,121.695917 153.049,121.151917 153.219,120.471917 C153.27,120.165917 153.44,120.012917 153.746,120.012917 C153.899,120.012917 154.052,120.063917 154.188,120.131917 C154.324,120.267917 154.392,120.403917 154.409,120.539917 C154.409,120.811917 154.341,121.151917 154.239,121.542917 C154.035,122.290917 153.848,122.834917 153.678,123.191917 C153.61,123.412917 153.457,123.531917 153.219,123.531917 C152.998,123.531917 152.811,123.480917 152.641,123.378917 C152.488,123.276917 152.42,123.140917 152.42,122.936917 C152.42,122.783917 152.454,122.630917 152.522,122.460917 C152.522,122.443917 152.539,122.426917 152.556,122.392917 C152.369,122.664917 152.063,122.800917 151.621,122.800917 L149.751,122.800917 C149.003,122.800917 148.629,122.426917 148.629,121.661917 L148.629,111.240917 C148.629,110.492917 149.003,110.118917 149.751,110.118917 Z M152.743,118.261917 C152.76,118.227917 152.777,118.210917 152.794,118.193917 C152.862,118.091917 153.015,118.023917 153.219,118.006917 L153.457,118.006917 C153.848,117.649917 154.205,117.275917 154.545,116.884917 C153.984,116.442917 153.423,116.034917 152.879,115.694917 C152.811,115.643917 152.777,115.592917 152.743,115.524917 L152.743,118.261917 Z M150.754,120.862917 C150.975,120.862917 151.094,120.760917 151.094,120.539917 L151.094,112.362917 C151.094,112.158917 150.975,112.039917 150.754,112.039917 L150.618,112.039917 C150.397,112.039917 150.295,112.158917 150.295,112.362917 L150.295,120.539917 C150.295,120.760917 150.397,120.862917 150.618,120.862917 L150.754,120.862917 Z M156.466,110.577917 L155.667,110.577917 C155.48,110.577917 155.395,110.679917 155.395,110.849917 L155.395,111.903917 C155.395,112.090917 155.48,112.175917 155.667,112.175917 L156.466,112.175917 L156.466,110.577917 Z M157.86,112.175917 L158.795,112.175917 L158.795,110.577917 L157.86,110.577917 L157.86,112.175917 Z M160.189,112.175917 L160.988,112.175917 C161.158,112.175917 161.243,112.090917 161.243,111.903917 L161.243,110.849917 C161.243,110.679917 161.158,110.577917 160.988,110.577917 L160.189,110.577917 L160.189,112.175917 Z M156.925,119.808917 C157.265,119.808917 157.486,119.944917 157.588,120.199917 C157.945,120.930917 158.132,121.780917 158.132,122.732917 C158.098,123.072917 157.877,123.242917 157.469,123.259917 C157.129,123.242917 156.959,123.089917 156.925,122.800917 C156.789,121.882917 156.636,121.134917 156.466,120.539917 C156.415,120.437917 156.398,120.369917 156.398,120.335917 C156.398,120.029917 156.585,119.842917 156.925,119.808917 Z M161.532,113.433917 L160.206,113.433917 C160.274,113.535917 160.325,113.671917 160.325,113.824917 C160.291,114.028917 160.206,114.232917 160.07,114.470917 C160.019,114.572917 159.985,114.640917 159.951,114.691917 L161.107,114.691917 C161.192,114.402917 161.26,114.113917 161.311,113.824917 C161.345,113.637917 161.43,113.501917 161.532,113.433917 Z M160.92,122.137917 L160.92,121.066917 L159.917,121.066917 L159.917,121.865917 C159.917,122.052917 159.985,122.137917 160.121,122.137917 L160.92,122.137917 Z M160.92,119.672917 L160.92,118.618917 L159.917,118.618917 L159.917,119.672917 L160.92,119.672917 Z M160.92,117.224917 L160.92,116.153917 L159.917,116.153917 L159.917,117.224917 L160.92,117.224917 Z M39.3790001,139.663917 L48.8310001,139.663917 C49.9530001,139.663917 50.7350001,139.867917 51.1430001,140.241917 C51.1770001,140.309917 51.2110001,140.343917 51.2450001,140.343917 C51.3130001,140.207917 51.4150001,140.105917 51.5170001,140.003917 C51.9250001,139.731917 52.3330001,139.561917 52.8090001,139.527917 C53.4210001,139.595917 53.8630001,139.799917 54.1350001,140.173917 C54.6790001,140.887917 55.2230001,141.533917 55.7330001,142.145917 L55.8690001,142.009917 C56.4130001,141.431917 56.9910001,140.853917 57.5350001,140.275917 C58.0110001,139.663917 58.3850001,139.221917 58.6570001,138.983917 C58.9290001,138.779917 59.3030001,138.643917 59.8470001,138.575917 C60.3230001,138.575917 60.7650001,138.779917 61.2410001,139.119917 C61.7850001,139.493917 62.0910001,139.935917 62.0910001,140.445917 C62.0910001,140.853917 61.9890001,141.193917 61.7850001,141.465917 C61.5130001,141.941917 61.1050001,142.383917 60.5610001,142.859917 C59.8130001,143.709917 59.0310001,144.355917 58.2150001,144.763917 C58.6570001,145.239917 59.0990001,145.613917 59.5070001,145.919917 C59.6770001,146.089917 59.8470001,146.225917 60.0510001,146.327917 C60.2550001,146.123917 60.4590001,145.919917 60.6630001,145.681917 C61.3430001,144.933917 61.9890001,144.219917 62.6690001,143.471917 C63.2470001,142.723917 63.6890001,142.213917 63.9610001,141.907917 C64.1990001,141.703917 64.5390001,141.567917 65.0150001,141.499917 C65.4910001,141.499917 65.9330001,141.669917 66.3410001,142.009917 C66.8850001,142.349917 67.1570001,142.757917 67.1570001,143.233917 C67.1570001,143.709917 67.0210001,144.117917 66.7830001,144.457917 C66.5110001,145.001917 66.0350001,145.579917 65.4230001,146.157917 C64.6070001,147.109917 63.7910001,147.823917 62.9750001,148.333917 C64.0290001,149.013917 65.1510001,149.591917 66.3410001,150.135917 C66.8850001,150.407917 67.1570001,150.917917 67.1570001,151.597917 C67.1570001,152.141917 66.9530001,152.617917 66.6130001,153.025917 C66.3410001,153.501917 65.8990001,153.739917 65.2870001,153.739917 C64.5390001,153.739917 63.5530001,153.467917 62.3290001,152.855917 C61.1730001,152.311917 60.0510001,151.631917 58.8950001,150.747917 C58.8270001,150.883917 58.7590001,150.985917 58.7250001,151.053917 C58.3850001,151.427917 57.9430001,151.597917 57.3310001,151.597917 L46.2810001,151.597917 C45.7030001,151.597917 45.2610001,151.461917 44.9890001,151.189917 C44.8530001,151.087917 44.7510001,150.917917 44.7170001,150.713917 C43.9690001,151.223917 43.2890001,151.665917 42.6090001,152.039917 C40.6370001,153.127917 39.3450001,153.671917 38.7330001,153.739917 C37.9850001,153.739917 37.4410001,153.535917 37.0330001,153.127917 C36.6250001,152.719917 36.4550001,152.277917 36.4550001,151.869917 C36.4550001,151.257917 36.6590001,150.747917 37.1350001,150.271917 C38.6310001,149.591917 40.0250001,148.843917 41.3170001,148.095917 C40.3990001,147.517917 39.5490001,147.007917 38.8010001,146.531917 C38.6310001,146.463917 38.5290001,146.395917 38.4610001,146.293917 C38.2570001,146.123917 38.1890001,145.851917 38.1890001,145.511917 C38.1890001,145.137917 38.3590001,144.763917 38.7670001,144.355917 C39.1410001,144.083917 39.5150001,143.913917 39.9230001,143.913917 C40.2630001,143.913917 40.5350001,143.981917 40.7730001,144.083917 C42.3370001,144.865917 43.5270001,145.545917 44.3770001,146.123917 C44.7850001,145.817917 45.1930001,145.511917 45.6010001,145.171917 C46.6890001,144.355917 47.2330001,143.777917 47.2330001,143.369917 C47.2330001,143.199917 47.1310001,143.097917 46.9610001,143.097917 L39.3790001,143.097917 C38.3590001,143.029917 37.8150001,142.451917 37.7810001,141.363917 C37.8150001,140.275917 38.3590001,139.731917 39.3790001,139.663917 Z M47.7770001,148.299917 L55.9710001,148.299917 C54.3050001,146.667917 52.9450001,145.103917 51.9250001,143.607917 C51.8570001,143.539917 51.8230001,143.505917 51.8230001,143.437917 C51.5510001,144.253917 50.9730001,145.103917 50.0890001,146.055917 C49.3070001,146.905917 48.5250001,147.653917 47.7770001,148.299917 Z M42.0310001,153.331917 L61.4450001,153.331917 C62.9410001,153.331917 63.6890001,154.079917 63.6890001,155.575917 L63.6890001,159.451917 C63.6890001,160.947917 62.9410001,161.695917 61.4450001,161.695917 L60.7990001,161.695917 L59.9490001,164.891917 L64.2330001,164.891917 C64.7770001,164.891917 65.2190001,165.027917 65.4910001,165.265917 C65.7630001,165.469917 65.9330001,165.979917 65.9330001,166.761917 C65.9330001,167.373917 65.8310001,167.781917 65.6950001,168.019917 C65.3550001,168.393917 64.8790001,168.597917 64.2330001,168.597917 L39.2430001,168.597917 C38.6990001,168.597917 38.2910001,168.427917 38.0190001,168.155917 C37.6790001,167.883917 37.5430001,167.441917 37.5430001,166.761917 C37.5430001,166.013917 37.6790001,165.503917 38.0190001,165.231917 C38.2230001,165.027917 38.6310001,164.891917 39.2430001,164.891917 L43.9690001,164.891917 L42.9150001,161.695917 L42.0310001,161.695917 C40.5350001,161.695917 39.7870001,160.947917 39.7870001,159.451917 L39.7870001,155.575917 C39.7870001,154.079917 40.5350001,153.331917 42.0310001,153.331917 Z M48.4570001,164.891917 L55.0190001,164.891917 L55.8690001,161.695917 L47.4370001,161.695917 L48.4570001,164.891917 Z M58.3850001,158.771917 C58.7250001,158.771917 58.8950001,158.601917 58.8950001,158.261917 L58.8950001,156.799917 C58.8950001,156.459917 58.7250001,156.255917 58.3850001,156.255917 L45.0910001,156.255917 C44.7510001,156.255917 44.5810001,156.459917 44.5810001,156.799917 L44.5810001,158.261917 C44.5810001,158.601917 44.7510001,158.771917 45.0910001,158.771917 L58.3850001,158.771917 Z M82.323,138.983917 C83.071,138.983917 83.853,139.323917 84.703,140.003917 C85.893,140.887917 86.913,141.907917 87.729,143.063917 C88.545,144.151917 88.987,145.137917 88.987,146.021917 C88.987,146.497917 88.817,146.905917 88.511,147.211917 C88.239,147.517917 87.967,147.687917 87.627,147.721917 C87.899,147.959917 88.035,148.401917 88.035,149.081917 C88.035,149.693917 87.933,150.135917 87.763,150.373917 C87.457,150.781917 86.981,150.951917 86.335,150.951917 L84.193,150.951917 L84.193,153.195917 L86.845,153.195917 C87.423,153.195917 87.831,153.331917 88.103,153.569917 C88.409,153.807917 88.579,154.317917 88.579,155.065917 C88.579,155.677917 88.477,156.119917 88.307,156.323917 C88.001,156.731917 87.525,156.901917 86.845,156.901917 L84.193,156.901917 L84.193,160.539917 C84.703,159.689917 85.145,158.839917 85.519,157.989917 C85.723,157.649917 86.029,157.479917 86.437,157.445917 C86.879,157.445917 87.287,157.581917 87.695,157.785917 C88.171,158.091917 88.443,158.499917 88.443,159.043917 C88.443,159.315917 88.341,159.621917 88.171,159.961917 C87.627,161.151917 87.151,162.069917 86.709,162.749917 C86.505,162.919917 86.267,163.021917 85.927,163.021917 C85.315,163.021917 84.805,162.817917 84.363,162.341917 C84.295,162.273917 84.227,162.239917 84.193,162.171917 L84.193,164.075917 C85.145,163.939917 86.063,163.837917 86.981,163.701917 L87.117,163.701917 C87.117,163.157917 87.355,162.715917 87.899,162.375917 L91.877,159.825917 C91.401,159.757917 91.061,159.519917 90.823,159.043917 C90.245,158.023917 89.667,157.071917 89.123,156.187917 C88.919,156.017917 88.851,155.813917 88.851,155.575917 C88.851,155.031917 89.089,154.623917 89.633,154.283917 C90.007,154.113917 90.449,154.011917 90.959,154.011917 C91.231,154.011917 91.435,154.113917 91.639,154.249917 C91.945,154.521917 92.285,154.929917 92.693,155.439917 C93.577,156.799917 94.019,157.751917 94.019,158.363917 L94.019,158.431917 C94.121,158.363917 94.223,158.329917 94.291,158.261917 C94.529,158.261917 94.733,158.295917 94.937,158.329917 L94.937,153.195917 L90.177,153.195917 C89.531,153.195917 89.055,153.059917 88.749,152.753917 C88.443,152.515917 88.307,152.039917 88.307,151.325917 C88.307,150.679917 88.443,150.237917 88.749,149.999917 C89.021,149.761917 89.497,149.625917 90.177,149.625917 L98.541,149.625917 C98.677,149.149917 98.847,148.707917 98.983,148.299917 L91.911,148.299917 C90.415,148.299917 89.667,147.653917 89.633,146.429917 C89.633,146.157917 90.449,143.981917 92.149,139.901917 C92.353,138.983917 93.135,138.507917 94.427,138.439917 C95.515,138.507917 96.093,139.017917 96.161,140.037917 L101.873,140.037917 C102.893,140.037917 103.573,140.207917 103.981,140.547917 C104.423,140.887917 104.661,141.533917 104.661,142.451917 C104.661,142.791917 103.981,145.171917 102.621,149.625917 L104.389,149.625917 C105.069,149.625917 105.545,149.761917 105.817,149.999917 C106.089,150.237917 106.225,150.679917 106.225,151.325917 C106.225,151.903917 106.089,152.311917 105.885,152.583917 C105.545,152.991917 105.069,153.195917 104.389,153.195917 L99.085,153.195917 L99.085,154.997917 C99.459,155.711917 99.833,156.391917 100.241,157.003917 C101.261,155.983917 102.111,154.997917 102.757,154.113917 C102.927,153.909917 103.165,153.807917 103.437,153.739917 C103.913,153.773917 104.423,153.977917 104.899,154.317917 C105.443,154.793917 105.715,155.235917 105.715,155.711917 C105.715,156.119917 105.579,156.493917 105.307,156.799917 C104.559,158.023917 103.573,159.111917 102.349,160.131917 C103.403,161.593917 104.559,162.987917 105.851,164.347917 C106.259,164.653917 106.497,165.095917 106.497,165.673917 C106.497,166.149917 106.327,166.557917 105.987,167.033917 C105.545,167.543917 105.103,167.815917 104.661,167.815917 C103.947,167.815917 103.369,167.611917 102.927,167.271917 C101.533,165.707917 100.241,163.871917 99.085,161.729917 L99.085,166.217917 C99.085,168.189917 98.235,169.277917 96.535,169.413917 C95.821,169.413917 95.141,169.345917 94.529,169.277917 C93.951,169.209917 93.441,169.073917 92.999,168.937917 C92.693,168.699917 92.455,168.427917 92.285,168.155917 C92.081,167.747917 92.013,167.237917 92.013,166.625917 C92.013,166.183917 92.115,165.775917 92.353,165.401917 C92.557,165.265917 92.829,165.197917 93.101,165.163917 L94.155,165.163917 C94.665,165.163917 94.937,164.993917 94.937,164.619917 L94.937,162.239917 C93.475,163.395917 91.809,164.517917 89.905,165.605917 C89.565,165.809917 89.259,165.911917 88.987,165.945917 C88.851,165.945917 88.749,165.945917 88.681,165.911917 C88.647,166.387917 88.477,166.761917 88.205,167.067917 C87.933,167.339917 87.491,167.543917 86.845,167.679917 C82.765,168.359917 79.569,168.733917 77.291,168.733917 C76.611,168.733917 76.101,168.563917 75.829,168.223917 C75.557,167.917917 75.421,167.441917 75.421,166.761917 C75.421,166.081917 75.591,165.605917 75.931,165.265917 C76.135,165.061917 76.543,164.925917 77.155,164.891917 C78.243,164.789917 79.297,164.687917 80.351,164.551917 L80.351,163.123917 C80.283,163.259917 80.181,163.361917 80.079,163.429917 C79.807,163.769917 79.399,163.939917 78.889,163.939917 C78.345,163.939917 77.971,163.871917 77.767,163.701917 C77.563,163.565917 77.461,163.395917 77.427,163.157917 C77.053,162.273917 76.543,161.117917 75.863,159.757917 C75.829,159.689917 75.829,159.587917 75.829,159.451917 C75.829,159.247917 75.863,159.043917 75.965,158.771917 C76.101,158.465917 76.373,158.227917 76.781,158.023917 C77.019,157.921917 77.291,157.853917 77.563,157.853917 C78.209,157.853917 78.685,158.023917 79.025,158.363917 C79.297,158.771917 79.671,159.519917 80.079,160.675917 C80.181,161.015917 80.283,161.287917 80.351,161.559917 L80.351,156.901917 L77.155,156.901917 C76.611,156.901917 76.203,156.765917 75.897,156.493917 C75.557,156.255917 75.421,155.779917 75.421,155.065917 C75.421,154.317917 75.557,153.807917 75.897,153.535917 C76.135,153.331917 76.543,153.195917 77.155,153.195917 L80.351,153.195917 L80.351,150.951917 L78.073,150.951917 C77.529,150.951917 77.121,150.815917 76.849,150.509917 C76.509,150.271917 76.373,149.795917 76.373,149.081917 C76.373,148.911917 76.373,148.741917 76.407,148.605917 C75.897,148.503917 75.523,148.299917 75.251,147.959917 C74.843,147.483917 74.639,146.973917 74.639,146.429917 C74.639,145.885917 74.911,145.443917 75.421,145.103917 C76.849,143.505917 78.345,141.873917 79.943,140.207917 C80.691,139.391917 81.507,138.983917 82.323,138.983917 Z M79.127,147.347917 L85.961,147.347917 C85.893,147.313917 85.825,147.279917 85.791,147.211917 C84.907,146.429917 84.091,145.409917 83.343,144.151917 C83.003,143.743917 82.663,143.505917 82.323,143.505917 C82.051,143.505917 81.779,143.743917 81.541,144.151917 C80.589,145.409917 79.773,146.463917 79.127,147.347917 Z M100.071,144.967917 C100.343,144.083917 100.513,143.573917 100.513,143.505917 C100.513,143.335917 100.377,143.233917 100.139,143.233917 L94.835,143.233917 C94.631,143.709917 94.393,144.185917 94.155,144.695917 C94.155,144.899917 94.291,144.967917 94.563,144.967917 L100.071,144.967917 Z M116.121,139.901917 L142.811,139.901917 C143.559,139.901917 144.137,140.071917 144.477,140.377917 C144.783,140.649917 144.953,141.159917 144.953,141.907917 C144.953,142.587917 144.817,143.063917 144.545,143.369917 C144.171,143.845917 143.593,144.049917 142.811,144.049917 L131.659,144.049917 L131.659,146.429917 L139.241,146.429917 C141.417,146.429917 142.539,147.687917 142.539,150.135917 L142.539,158.261917 L143.355,158.261917 C144.001,158.261917 144.477,158.397917 144.783,158.669917 C145.055,158.907917 145.191,159.383917 145.191,160.097917 C145.191,160.675917 145.055,161.083917 144.851,161.355917 C144.511,161.763917 144.035,161.967917 143.355,161.967917 L142.539,161.967917 L142.539,165.945917 C142.539,167.305917 142.199,168.223917 141.553,168.631917 C140.805,169.141917 139.717,169.413917 138.289,169.413917 C136.453,169.345917 134.651,169.141917 132.849,168.733917 C131.965,168.325917 131.523,167.645917 131.523,166.761917 C131.591,165.231917 132.169,164.381917 133.257,164.211917 C133.529,164.211917 133.835,164.245917 134.107,164.245917 C135.059,164.585917 136.215,164.755917 137.507,164.755917 C137.847,164.755917 138.017,164.381917 138.017,163.565917 L138.017,161.967917 L120.915,161.967917 L120.915,167.543917 C120.915,168.359917 120.677,168.903917 120.269,169.209917 C119.929,169.481917 119.385,169.651917 118.637,169.651917 C117.821,169.651917 117.243,169.447917 116.903,169.107917 C116.563,168.699917 116.393,168.189917 116.393,167.543917 L116.393,161.967917 L115.577,161.967917 C114.965,161.967917 114.489,161.831917 114.183,161.525917 C113.877,161.253917 113.741,160.777917 113.741,160.097917 C113.741,159.383917 113.877,158.907917 114.183,158.635917 C114.455,158.397917 114.897,158.261917 115.577,158.261917 L116.393,158.261917 L116.393,150.135917 C116.393,147.687917 117.447,146.429917 119.555,146.429917 L127.137,146.429917 L127.137,144.049917 L116.121,144.049917 C115.407,144.049917 114.863,143.879917 114.523,143.539917 C114.149,143.267917 113.979,142.723917 113.979,141.907917 C113.979,141.159917 114.149,140.615917 114.523,140.343917 C114.829,140.071917 115.373,139.901917 116.121,139.901917 Z M120.915,158.261917 L127.137,158.261917 L127.137,155.847917 L120.915,155.847917 L120.915,158.261917 Z M131.659,158.261917 L138.017,158.261917 L138.017,155.847917 L131.659,155.847917 L131.659,158.261917 Z M120.915,152.413917 L127.137,152.413917 L127.137,150.135917 L121.697,150.135917 C121.153,150.135917 120.915,150.373917 120.915,150.815917 L120.915,152.413917 Z M131.659,150.135917 L131.659,152.413917 L138.017,152.413917 L138.017,150.815917 C138.017,150.373917 137.847,150.135917 137.507,150.135917 L131.659,150.135917 Z M42.7110001,180.281917 C44.1390001,180.281917 44.8870001,180.927917 44.9550001,182.151917 L44.9550001,185.075917 L45.9070001,185.075917 C46.5870001,185.075917 47.1310001,185.245917 47.4710001,185.551917 C47.8110001,185.823917 48.0150001,186.401917 48.0150001,187.319917 C48.0150001,188.101917 47.8790001,188.611917 47.6750001,188.883917 C47.3010001,189.359917 46.7230001,189.597917 45.9070001,189.597917 L44.9550001,189.597917 L44.9550001,194.153917 C45.2270001,194.085917 45.4990001,194.051917 45.7710001,193.983917 C46.6550001,193.983917 47.2330001,194.187917 47.4710001,194.595917 C47.8790001,195.139917 48.1170001,195.751917 48.1510001,196.363917 C48.1510001,197.451917 47.7770001,198.063917 47.0970001,198.233917 C46.7230001,198.403917 46.0090001,198.607917 44.9550001,198.845917 L44.9550001,207.515917 C44.9550001,209.725917 43.4930001,210.847917 40.5690001,210.847917 C39.4130001,210.779917 38.6310001,210.507917 38.2230001,210.031917 C37.7470001,209.555917 37.5430001,208.943917 37.5430001,208.195917 C37.5430001,207.243917 37.7130001,206.529917 38.0530001,206.019917 C38.4950001,205.679917 39.0730001,205.509917 39.7870001,205.509917 C40.2970001,205.509917 40.5690001,205.305917 40.5690001,204.863917 L40.5690001,199.831917 L40.5350001,199.831917 C39.6170001,200.103917 38.8350001,200.205917 38.1890001,200.205917 C37.5770001,200.205917 37.1010001,199.967917 36.7270001,199.457917 C36.3530001,198.981917 36.1830001,198.437917 36.1830001,197.825917 C36.1830001,196.975917 36.5230001,196.295917 37.2710001,195.819917 C38.3590001,195.581917 39.4470001,195.343917 40.5690001,195.071917 L40.5690001,189.597917 L38.7330001,189.597917 C38.0530001,189.597917 37.5430001,189.427917 37.2030001,189.053917 C36.7950001,188.747917 36.5910001,188.169917 36.5910001,187.319917 C36.5910001,186.435917 36.7950001,185.857917 37.2030001,185.517917 C37.4750001,185.245917 37.9850001,185.075917 38.7330001,185.075917 L40.5690001,185.075917 L40.5690001,182.151917 C40.6030001,180.961917 41.3170001,180.349917 42.7110001,180.281917 Z M52.1290001,184.939917 L55.4610001,184.939917 L55.4610001,182.423917 C55.4610001,181.879917 55.6650001,181.335917 56.0730001,180.859917 C56.4130001,180.587917 56.9570001,180.417917 57.7050001,180.417917 C58.4870001,180.417917 59.0650001,180.587917 59.4050001,180.893917 C59.8810001,181.267917 60.1190001,181.777917 60.1190001,182.423917 L60.1190001,184.939917 L63.2810001,184.939917 C65.5930001,184.939917 66.7490001,186.095917 66.7490001,188.407917 L66.7490001,206.597917 C66.7490001,208.875917 65.5930001,210.031917 63.2810001,210.031917 L52.1290001,210.031917 C49.8170001,210.031917 48.6950001,208.875917 48.6950001,206.597917 L48.6950001,188.407917 C48.6950001,186.095917 49.8170001,184.939917 52.1290001,184.939917 Z M61.8190001,205.917917 C62.2610001,205.917917 62.4990001,205.713917 62.4990001,205.271917 L62.4990001,199.287917 L59.7110001,199.287917 L59.7110001,205.917917 L61.8190001,205.917917 Z M55.7330001,205.917917 L55.7330001,199.287917 L52.9450001,199.287917 L52.9450001,205.271917 C52.9450001,205.713917 53.1490001,205.917917 53.5910001,205.917917 L55.7330001,205.917917 Z M52.9450001,195.309917 L55.7330001,195.309917 L55.7330001,189.053917 L53.5910001,189.053917 C53.1490001,189.053917 52.9450001,189.291917 52.9450001,189.733917 L52.9450001,195.309917 Z M59.7110001,189.053917 L59.7110001,195.309917 L62.4990001,195.309917 L62.4990001,189.733917 C62.4990001,189.291917 62.2610001,189.053917 61.8190001,189.053917 L59.7110001,189.053917 Z M80.623,180.281917 C81.405,180.281917 81.983,180.417917 82.357,180.689917 C82.833,180.961917 83.071,181.403917 83.139,182.015917 C83.139,182.899917 83.003,184.191917 82.731,185.857917 L85.655,185.857917 C86.845,185.857917 87.763,186.129917 88.375,186.673917 C88.919,187.319917 89.225,188.305917 89.225,189.597917 C89.225,191.025917 89.089,192.487917 88.817,194.017917 C89.157,193.915917 89.565,193.847917 90.041,193.847917 L94.053,193.847917 C93.815,193.405917 93.577,192.963917 93.339,192.487917 C92.727,191.603917 92.387,190.957917 92.285,190.515917 C92.285,189.699917 92.557,189.155917 93.135,188.917917 C93.611,188.645917 94.155,188.509917 94.699,188.509917 C95.617,188.509917 96.263,188.815917 96.637,189.393917 C98.507,187.829917 99.459,186.707917 99.459,185.993917 C99.459,185.823917 99.357,185.721917 99.187,185.721917 L91.231,185.721917 C90.517,185.721917 90.007,185.517917 89.667,185.109917 C89.293,184.803917 89.123,184.293917 89.123,183.613917 C89.123,182.899917 89.327,182.355917 89.735,181.981917 C90.007,181.641917 90.517,181.471917 91.231,181.471917 L101.601,181.471917 C102.655,181.471917 103.505,181.811917 104.117,182.423917 C104.729,183.035917 105.035,183.783917 105.035,184.667917 C105.035,185.415917 104.695,186.401917 104.015,187.625917 C102.519,189.665917 100.819,191.501917 98.915,193.065917 C99.051,193.337917 99.153,193.609917 99.289,193.847917 L103.845,193.847917 C104.661,193.847917 105.239,194.017917 105.613,194.323917 C105.953,194.595917 106.123,195.139917 106.123,195.955917 C106.123,196.635917 105.953,197.145917 105.681,197.485917 C105.273,197.995917 104.661,198.233917 103.845,198.233917 L100.819,198.233917 C101.159,199.729917 101.329,201.225917 101.329,202.721917 C101.329,205.509917 100.955,207.515917 100.207,208.705917 C99.323,210.201917 97.963,210.983917 96.161,210.983917 C94.393,210.983917 92.999,210.711917 92.013,210.201917 C91.197,209.725917 90.755,209.113917 90.687,208.331917 C90.687,207.583917 90.857,206.971917 91.163,206.427917 C91.367,206.121917 91.639,205.951917 92.013,205.917917 C92.251,205.917917 92.625,205.951917 93.135,205.985917 C94.461,206.189917 95.413,206.325917 96.025,206.325917 C96.535,206.325917 96.807,204.727917 96.807,201.531917 C96.807,200.715917 96.535,199.593917 96.059,198.233917 L90.041,198.233917 C89.293,198.233917 88.715,198.063917 88.307,197.689917 C88.171,197.621917 88.103,197.519917 88.069,197.383917 L87.559,199.117917 C87.151,200.137917 86.709,201.123917 86.233,202.007917 C87.219,202.687917 88.171,203.401917 89.123,204.081917 C89.735,204.387917 90.041,204.999917 90.041,205.917917 C90.041,206.529917 89.803,207.107917 89.395,207.583917 C89.055,208.127917 88.477,208.433917 87.661,208.433917 C86.879,208.365917 86.165,208.093917 85.485,207.549917 C84.873,207.073917 84.261,206.597917 83.683,206.121917 C82.799,207.243917 81.915,208.195917 80.997,209.079917 C79.841,210.167917 78.821,210.779917 77.937,210.847917 C76.985,210.847917 76.305,210.609917 75.931,210.201917 C75.489,209.725917 75.285,209.249917 75.285,208.705917 C75.285,208.025917 75.523,207.481917 75.965,206.971917 C77.393,205.747917 78.617,204.489917 79.671,203.197917 C78.855,202.653917 78.073,202.143917 77.325,201.633917 C76.237,201.089917 75.693,200.171917 75.693,198.879917 C75.693,198.369917 75.795,197.655917 76.033,196.771917 C76.543,194.731917 77.019,192.589917 77.427,190.379917 L77.019,190.379917 C76.305,190.379917 75.795,190.209917 75.455,189.801917 C75.081,189.529917 74.911,188.985917 74.911,188.135917 C74.911,187.387917 75.081,186.809917 75.489,186.367917 C75.829,186.027917 76.339,185.857917 77.019,185.857917 L78.209,185.857917 C78.413,184.599917 78.583,183.307917 78.753,182.015917 C78.753,181.505917 78.957,181.063917 79.399,180.655917 C79.807,180.417917 80.215,180.281917 80.623,180.281917 Z M82.221,199.491917 C82.323,199.321917 82.425,199.151917 82.527,198.947917 C83.989,196.159917 84.737,193.439917 84.737,190.787917 C84.737,190.515917 84.499,190.379917 84.057,190.379917 L81.881,190.379917 C81.541,192.045917 81.133,193.881917 80.657,195.853917 C80.453,196.805917 80.351,197.417917 80.351,197.689917 C80.351,198.233917 80.555,198.573917 80.963,198.777917 C81.371,199.049917 81.813,199.287917 82.221,199.491917 Z M116.393,181.471917 L124.213,181.471917 C124.791,181.471917 125.199,181.607917 125.471,181.845917 C125.777,182.049917 125.947,182.491917 125.947,183.205917 C125.947,183.851917 125.845,184.293917 125.675,184.497917 C125.369,184.905917 124.893,185.075917 124.213,185.075917 L116.393,185.075917 C115.849,185.075917 115.441,184.939917 115.135,184.633917 C114.795,184.395917 114.659,183.919917 114.659,183.205917 C114.659,182.525917 114.795,182.083917 115.135,181.811917 C115.373,181.607917 115.781,181.471917 116.393,181.471917 Z M115.849,187.591917 L125.165,187.591917 C125.845,187.591917 126.355,187.727917 126.695,187.999917 C126.967,188.271917 127.137,188.747917 127.137,189.461917 C127.137,190.073917 127.001,190.549917 126.763,190.821917 C126.423,191.229917 125.879,191.433917 125.165,191.433917 L122.343,191.433917 L122.343,209.113917 C122.343,209.759917 122.173,210.201917 121.901,210.473917 C121.595,210.813917 121.119,210.983917 120.507,210.983917 C119.861,210.983917 119.385,210.813917 119.113,210.473917 C118.773,210.201917 118.637,209.759917 118.637,209.113917 L118.637,191.433917 L115.849,191.433917 C115.169,191.433917 114.693,191.297917 114.353,190.991917 C114.013,190.719917 113.843,190.209917 113.843,189.461917 C113.843,188.747917 114.013,188.271917 114.353,187.999917 C114.625,187.727917 115.135,187.591917 115.849,187.591917 Z M115.985,193.031917 C116.427,193.031917 116.801,193.133917 117.107,193.269917 C117.379,193.507917 117.549,193.813917 117.583,194.221917 L117.583,197.553917 C117.583,198.879917 117.515,200.137917 117.447,201.361917 C117.175,204.965917 116.733,207.243917 116.121,208.195917 C115.951,208.535917 115.509,208.705917 114.795,208.705917 C114.251,208.705917 113.843,208.569917 113.639,208.297917 C113.333,208.093917 113.197,207.787917 113.197,207.243917 C113.197,206.971917 113.265,206.699917 113.401,206.359917 C114.081,203.911917 114.455,201.361917 114.523,198.743917 L114.523,194.221917 C114.523,193.847917 114.659,193.541917 114.931,193.337917 C115.135,193.133917 115.475,193.031917 115.985,193.031917 Z M129.653,181.879917 L132.305,181.879917 L132.305,181.233917 C132.305,180.757917 132.407,180.417917 132.645,180.213917 C132.849,180.009917 133.223,179.907917 133.767,179.907917 C134.311,179.907917 134.685,180.009917 134.889,180.179917 C135.093,180.417917 135.229,180.757917 135.229,181.233917 L135.229,181.879917 L136.555,181.879917 L136.555,181.233917 C136.555,180.757917 136.657,180.417917 136.895,180.213917 C137.099,180.009917 137.473,179.907917 138.017,179.907917 C138.561,179.907917 138.935,180.009917 139.139,180.179917 C139.343,180.417917 139.479,180.757917 139.479,181.233917 L139.479,181.879917 L142.165,181.879917 C143.661,181.879917 144.409,182.661917 144.409,184.157917 L144.409,191.059917 C144.409,192.555917 143.661,193.303917 142.165,193.303917 L129.653,193.303917 C128.157,193.303917 127.409,192.555917 127.409,191.059917 L127.409,184.157917 C127.409,182.661917 128.157,181.879917 129.653,181.879917 Z M140.431,190.515917 C140.771,190.515917 140.941,190.345917 140.941,189.971917 L140.941,188.781917 L139.479,188.781917 L139.479,190.515917 L140.431,190.515917 Z M136.555,190.515917 L136.555,188.781917 L135.229,188.781917 L135.229,190.515917 L136.555,190.515917 Z M132.305,190.515917 L132.305,188.781917 L130.843,188.781917 L130.843,189.971917 C130.843,190.345917 131.013,190.515917 131.387,190.515917 L132.305,190.515917 Z M130.843,186.401917 L132.305,186.401917 L132.305,184.667917 L131.387,184.667917 C131.013,184.667917 130.843,184.871917 130.843,185.211917 L130.843,186.401917 Z M135.229,184.667917 L135.229,186.401917 L136.555,186.401917 L136.555,184.667917 L135.229,184.667917 Z M139.479,184.667917 L139.479,186.401917 L140.941,186.401917 L140.941,185.211917 C140.941,184.871917 140.771,184.667917 140.431,184.667917 L139.479,184.667917 Z M128.327,194.357917 L143.593,194.357917 C144.137,194.357917 144.511,194.459917 144.749,194.663917 C144.953,194.833917 145.055,195.173917 145.055,195.683917 C145.055,196.159917 144.953,196.499917 144.817,196.703917 C144.545,197.009917 144.137,197.145917 143.593,197.145917 L128.327,197.145917 C127.851,197.145917 127.477,197.043917 127.239,196.805917 C126.967,196.601917 126.865,196.227917 126.865,195.683917 C126.865,195.207917 126.967,194.867917 127.239,194.663917 C127.443,194.459917 127.817,194.357917 128.327,194.357917 Z M127.817,206.971917 L130.367,206.971917 L129.857,205.135917 L129.653,205.135917 C128.327,205.135917 127.681,204.489917 127.681,203.129917 L127.681,200.069917 C127.681,198.777917 128.327,198.097917 129.653,198.097917 L142.267,198.097917 C143.593,198.097917 144.273,198.777917 144.273,200.069917 L144.273,203.129917 C144.273,204.489917 143.593,205.135917 142.267,205.135917 L142.199,205.135917 L141.723,206.971917 L144.137,206.971917 C144.681,206.971917 145.123,207.107917 145.395,207.345917 C145.599,207.549917 145.735,207.957917 145.735,208.569917 C145.735,209.045917 145.633,209.419917 145.429,209.657917 C145.157,209.997917 144.715,210.167917 144.137,210.167917 L127.817,210.167917 C127.273,210.167917 126.865,210.031917 126.593,209.793917 C126.321,209.555917 126.219,209.147917 126.219,208.569917 C126.219,207.957917 126.321,207.549917 126.593,207.345917 C126.831,207.107917 127.239,206.971917 127.817,206.971917 Z M138.017,206.971917 L138.493,205.135917 L133.563,205.135917 L134.073,206.971917 L138.017,206.971917 Z M125.029,193.167917 C125.573,193.167917 125.981,193.269917 126.185,193.473917 C126.389,193.677917 126.491,194.017917 126.491,194.493917 L126.491,206.461917 C126.491,206.903917 126.355,207.209917 126.151,207.413917 C125.913,207.685917 125.539,207.787917 125.029,207.787917 C124.485,207.787917 124.111,207.685917 123.873,207.413917 C123.669,207.277917 123.567,206.937917 123.567,206.461917 L123.567,194.493917 C123.567,194.085917 123.635,193.779917 123.839,193.575917 C124.043,193.303917 124.417,193.167917 125.029,193.167917 Z M139.751,202.483917 C140.091,202.483917 140.295,202.313917 140.295,201.939917 L140.295,201.259917 C140.295,200.919917 140.091,200.749917 139.751,200.749917 L132.203,200.749917 C131.829,200.749917 131.659,200.919917 131.659,201.259917 L131.659,201.939917 C131.659,202.313917 131.829,202.483917 132.203,202.483917 L139.751,202.483917 Z" id="path-5"></path>
        <filter x="-4.8%" y="-4.9%" width="109.5%" height="113.7%" filterUnits="objectBoundingBox" id="filter-6">
            <feOffset dx="0" dy="2" in="SourceAlpha" result="shadowOffsetOuter1"></feOffset>
            <feGaussianBlur stdDeviation="2" in="shadowOffsetOuter1" result="shadowBlurOuter1"></feGaussianBlur>
            <feColorMatrix values="0 0 0 0 0.643441752   0 0 0 0 0.643441752   0 0 0 0 0.643441752  0 0 0 0.5 0" type="matrix" in="shadowBlurOuter1"></feColorMatrix>
        </filter>
    </defs>
    <g id="web" stroke="none" stroke-width="1" fill="none" fill-rule="evenodd">
        <g id="Group-42">
            <g id="Group-41">
                <g id="Group-5" transform="translate(0.000000, 60.000000)">
                    <mask id="mask-2" fill="white">
                        <use xlink:href="#path-1"></use>
                    </mask>
                    <g id="Clip-4"></g>
                    <path d="M82.4496042,24.93427 C80.3945512,25.15467 78.5500283,23.6739367 78.3286855,21.6276367 C78.1079788,19.58197 79.5944099,17.74467 81.6494629,17.5249033 C83.7045159,17.3051367 85.5490389,18.7852367 85.7697456,20.8315367 C85.9910883,22.8772033 84.5040212,24.7145033 82.4496042,24.93427 M156.064516,29.7761033 L93.8697456,2.38000333 C84.8105936,-1.61063 74.301265,-0.48583 66.3017597,5.33070333 L11.376318,45.26617 C3.37617668,51.0827033 -0.899300353,60.70747 0.159074205,70.5146367 L7.42967491,137.846203 C8.48804947,147.65337 14.721265,156.152703 23.780417,160.143337 L85.9751873,187.54007 C95.0349753,191.53007 105.543668,190.40527 113.543809,184.588737 L168.468615,144.65327 C176.468756,138.836737 180.744869,129.21197 179.685859,119.404803 L172.415894,52.0732367 C171.356883,42.26607 165.123668,33.7667367 156.064516,29.7761033" id="Fill-3" fill="#FEA627" mask="url(#mask-2)"></path>
                </g>
                <path d="M82.039963,85.3930343 C79.952544,85.6172414 78.0781918,84.1087656 77.8536766,82.024211 C77.6291614,79.9396563 79.1390738,78.0672409 81.2271289,77.8436689 C83.3145479,77.6194618 85.1889001,79.1273024 85.4134153,81.2124922 C85.6379305,83.2970469 84.127382,85.1688271 82.039963,85.3930343 M152.620421,92.3313875 L93.8464101,66.3671855 C84.7875712,62.36512 74.2792418,63.4937774 66.2793769,69.3269737 L14.3756583,107.174789 C6.37579345,113.007985 2.09982815,122.660324 3.15943817,132.495586 L10.0290948,196.307603 C11.0880688,206.142865 17.3210689,214.666547 26.3792718,218.668612 L85.153283,244.632814 C94.2121218,248.63488 104.720451,247.506223 112.720316,241.673026 L164.624035,203.825211 C172.6239,197.992015 176.899229,188.339676 175.840891,178.505049 L168.970598,114.692397 C167.911624,104.85777 161.67926,96.333453 152.620421,92.3313875" id="Fill-6" fill="#FEC927"></path>
                <path d="M81,84.8466694 C78.8756028,84.8466694 77.1533306,83.1243972 77.1533306,81 C77.1533306,78.8756028 78.8756028,77.1533306 81,77.1533306 C83.1243972,77.1533306 84.8466694,78.8756028 84.8466694,81 C84.8466694,83.1243972 83.1243972,84.8466694 81,84.8466694 M81,73 C76.5818553,73 73,76.5818553 73,81 C73,85.4181447 76.5818553,89 81,89 C85.4181447,89 89,85.4181447 89,81 C89,76.5818553 85.4181447,73 81,73" id="Fill-36" fill="#EAEAEA"></path>
                <g id="Group-40" transform="translate(80.000000, 0.000000)">
                    <mask id="mask-4" fill="white">
                        <use xlink:href="#path-3"></use>
                    </mask>
                    <g id="Clip-39"></g>
                    <path d="M0.006,80.4315116 L0.006,0.406503876 L2.406,0.406503876 L2.406,80.4315116 C2.406,81.1332791 1.8684,81.7028295 1.206,81.7028295 C0.5436,81.7028295 0.006,81.1332791 0.006,80.4315116 Z" id="Fill-38" fill="#6C6C6C" mask="url(#mask-4)"></path>
                </g>
            </g>
            <g id="--" transform="translate(90.704000, 159.879917) rotate(-371.000000) translate(-90.704000, -159.879917) ">
                <use fill="black" fill-opacity="1" filter="url(#filter-6)" xlink:href="#path-5"></use>
                <use fill="#FFFFFF" fill-rule="evenodd" xlink:href="#path-5"></use>
            </g>
            <g id="Group-14" transform="translate(153.542128, 272.244391) scale(-1, 1) rotate(-67.000000) translate(-153.542128, -272.244391) translate(123.542128, 232.244391)">
                <polygon id="Fill-1" fill="#FAAF3D" points="28.5041 0.7103 30.8401 5.4443 36.0641 6.2033 32.2831 9.8883 33.1761 15.0913 28.5041 12.6343 23.8311 15.0913 24.7241 9.8883 20.9421 6.2033 26.1671 5.4443"></polygon>
                <g id="Group-13" transform="translate(0.000000, 6.056000)">
                    <path d="M24.6799,62.9776 C37.6039,60.0046 46.3959,78.5276 59.2809,71.3226 C59.5569,71.1676 58.2279,68.5576 58.4619,68.4266 C45.5799,75.6296 36.7839,57.1086 23.8619,60.0806 C23.8989,60.0726 24.5929,62.9976 24.6799,62.9776" id="Fill-4" fill="#2EC5E2"></path>
                    <path d="M57.007,54.8023 C54.756,45.8693 49.952,37.5103 39.363,37.5603 C34.66,37.5823 28.787,40.0513 30.113,45.5293 C30.851,48.5733 31.872,52.5553 35.807,52.5133 C41.732,52.4493 41.501,45.4123 40.339,41.4283 C39.03,36.9403 37.191,33.4513 33.528,30.2683 C28.49,25.8883 22.171,23.4103 16.326,20.3463 C10.663,17.3763 1.67,12.0123 1.434,4.8193 C1.38,3.1993 0.053,1.6283 2.84217094e-13,0.0293 C0.27,8.2173 4.378,15.8723 10.828,20.8313 C20.508,28.2733 35.257,30.4813 40.674,42.6203 C40.225,41.1343 39.776,39.6483 39.326,38.1613 C40.262,41.4873 39.799,45.7383 36.171,47.2803 C33.516,48.4083 31.023,47.0523 29.85,44.5793 C30.328,46.1763 30.806,47.7733 31.284,49.3693 C30.568,43.2393 39.036,41.8373 43.538,42.5743 C46.265,43.0203 48.913,44.1943 51.116,45.8543 C52.04,46.5503 52.882,47.3403 53.643,48.2083 C54.038,48.6603 56.123,52.2163 55.611,50.1873 C55.979,51.6433 56.718,53.6563 57.007,54.8023" id="Fill-6" fill="#F0B430"></path>
                    <path d="M46.7609,14.8345 C44.5839,14.6515 42.6149,16.3155 42.4309,18.4925 C42.2479,20.6695 43.9119,22.6385 46.0889,22.8215 C48.2659,23.0055 50.2359,21.3415 50.4189,19.1645 C50.6019,16.9875 48.9379,15.0175 46.7609,14.8345" id="Fill-11" fill="#8A68AF"></path>
                </g>
            </g>
            <g id="Group-14" transform="translate(172.023341, 325.384011) scale(-1, 1) rotate(73.000000) translate(-172.023341, -325.384011) translate(142.023341, 285.384011)">
                <polygon id="Fill-1" fill="#FAAF3D" points="28.5041 0.7103 30.8401 5.4443 36.0641 6.2033 32.2831 9.8883 33.1761 15.0913 28.5041 12.6343 23.8311 15.0913 24.7241 9.8883 20.9421 6.2033 26.1671 5.4443"></polygon>
                <g id="Group-13" transform="translate(0.000000, 6.056000)">
                    <path d="M24.6799,62.9776 C37.6039,60.0046 46.3959,78.5276 59.2809,71.3226 C59.5569,71.1676 58.2279,68.5576 58.4619,68.4266 C45.5799,75.6296 36.7839,57.1086 23.8619,60.0806 C23.8989,60.0726 24.5929,62.9976 24.6799,62.9776" id="Fill-4" fill="#2EC5E2"></path>
                    <path d="M57.007,54.8023 C54.756,45.8693 49.952,37.5103 39.363,37.5603 C34.66,37.5823 28.787,40.0513 30.113,45.5293 C30.851,48.5733 31.872,52.5553 35.807,52.5133 C41.732,52.4493 41.501,45.4123 40.339,41.4283 C39.03,36.9403 37.191,33.4513 33.528,30.2683 C28.49,25.8883 22.171,23.4103 16.326,20.3463 C10.663,17.3763 1.67,12.0123 1.434,4.8193 C1.38,3.1993 0.053,1.6283 2.84217094e-13,0.0293 C0.27,8.2173 4.378,15.8723 10.828,20.8313 C20.508,28.2733 35.257,30.4813 40.674,42.6203 C40.225,41.1343 39.776,39.6483 39.326,38.1613 C40.262,41.4873 39.799,45.7383 36.171,47.2803 C33.516,48.4083 31.023,47.0523 29.85,44.5793 C30.328,46.1763 30.806,47.7733 31.284,49.3693 C30.568,43.2393 39.036,41.8373 43.538,42.5743 C46.265,43.0203 48.913,44.1943 51.116,45.8543 C52.04,46.5503 52.882,47.3403 53.643,48.2083 C54.038,48.6603 56.123,52.2163 55.611,50.1873 C55.979,51.6433 56.718,53.6563 57.007,54.8023" id="Fill-6" fill="#F0B430"></path>
                    <path d="M46.7609,14.8345 C44.5839,14.6515 42.6149,16.3155 42.4309,18.4925 C42.2479,20.6695 43.9119,22.6385 46.0889,22.8215 C48.2659,23.0055 50.2359,21.3415 50.4189,19.1645 C50.6019,16.9875 48.9379,15.0175 46.7609,14.8345" id="Fill-11" fill="#8A68AF"></path>
                </g>
            </g>
        </g>
    </g>
</svg>