<?xml version="1.0" encoding="UTF-8"?>
<svg width="222px" height="248px" viewBox="0 0 222 248" version="1.1" xmlns="http://www.w3.org/2000/svg" xmlns:xlink="http://www.w3.org/1999/xlink">
    <!-- Generator: Sketch 52.3 (67297) - http://www.bohemiancoding.com/sketch -->
    <title>Group 4</title>
    <desc>Created with Sketch.</desc>
    <defs>
        <polygon id="path-1" points="0.00071802305 0.395482902 214.708171 0.395482902 214.708171 240.86385 0.00071802305 240.86385"></polygon>
        <polygon id="path-3" points="0 0.394281183 214.707896 0.394281183 214.707896 240.999093 0 240.999093"></polygon>
    </defs>
    <g id="web" stroke="none" stroke-width="1" fill="none" fill-rule="evenodd">
        <g id="Group-4">
            <g id="Group-11">
                <g id="Group-3" transform="translate(7.000000, 7.004844)">
                    <mask id="mask-2" fill="white">
                        <use xlink:href="#path-1"></use>
                    </mask>
                    <g id="Clip-2"></g>
                    <path d="M12.4707771,224.560734 C12.4707771,233.563344 19.7717108,240.864368 28.7771024,240.864368 L186.043127,240.864368 C195.049813,240.864368 202.349452,233.563344 202.349452,224.560734 L202.349452,127.185695 C205.205325,126.472169 207.841018,124.993316 209.953458,122.874751 C213.012675,119.803089 214.723608,115.64236 214.708066,111.308106 L214.560416,69.6127605 C214.528036,60.6295749 207.237464,53.3661053 198.252795,53.3661053 L184.665054,53.3661053 C185.710265,49.8709896 186.241289,46.2878161 186.224452,42.6800382 C186.224452,32.7748361 182.112253,18.5327898 173.143127,10.7124845 C165.581861,4.05894436 155.789,0.395482902 145.571319,0.395482902 C136.059512,0.395482902 126.519211,3.40628102 117.943819,9.12744494 C114.142464,11.6772348 110.776289,14.8745082 107.737795,18.4900559 C104.306861,14.8589686 100.615596,11.7199687 96.692494,9.10284057 C88.1546627,3.40628102 78.6260181,0.395482902 69.0494518,0.395482902 C58.444512,0.452461447 48.2475542,4.6054204 40.3650843,12.06184 C31.4749639,20.4325063 27.4132771,34.9231863 27.3925542,44.880187 C27.3731265,47.7304092 27.6813795,50.5728617 28.308247,53.3661053 L16.3071024,53.3661053 C11.9747229,53.3661053 7.81978313,55.0897063 4.76186145,58.156188 C1.70264458,61.2226697 -0.0108795181,65.3808086 0.000777108434,69.7137679 L0.0927349398,104.395572 C0.113457831,112.021633 5.34469277,103.767513 12.4280361,105.527373 L12.4707771,135.463124 C9.83378916,135.802405 14.7541807,107.425795 12.4280361,109.053568" id="Fill-1" fill="#0E2A47" opacity="0.308500744" mask="url(#mask-2)"></path>
                </g>
                <g id="Group-6" transform="translate(0.000000, 0.004844)">
                    <mask id="mask-4" fill="white">
                        <use xlink:href="#path-3"></use>
                    </mask>
                    <g id="Clip-5"></g>
                    <path d="M28.7768434,240.999093 C19.7714518,240.999093 12.4705181,233.695238 12.4705181,224.686244 L12.4705181,127.26005 C5.3871747,125.497899 0.132626506,119.10233 0.111903614,111.471959 L-0.000777108434,69.7517489 C-0.0124337349,65.417636 1.70238554,61.2558511 4.76030723,58.187636 C7.8195241,55.119421 11.9744639,53.3948457 16.3068434,53.3948457 L28.307988,53.3948457 C27.6811205,50.6013188 27.3728675,47.755964 27.3922952,44.9054263 C27.4130181,34.9427973 31.4747048,20.4426306 40.3648253,12.0672328 C48.2472952,4.60789409 58.444253,0.452587634 69.0491928,0.394281183 C78.6244639,0.394281183 88.1531084,3.40678118 96.6922349,9.10656075 C100.615337,11.7251683 104.306602,14.8685339 107.737536,18.500378 C110.777325,14.8827866 114.142205,11.6837059 117.94356,9.13247473 C126.517657,3.40678118 136.059253,0.394281183 145.57106,0.394281183 C155.788741,0.394281183 165.581602,4.05981344 173.142867,10.7171145 C182.113289,18.543136 186.224193,32.7945285 186.224193,42.7027382 C186.24103,46.3125554 185.708711,49.89905 184.664795,53.3948457 L198.253831,53.3948457 C207.237205,53.3948457 214.527777,60.662421 214.558861,69.6506844 L214.707807,111.370894 C214.722054,115.707598 213.012416,119.871975 209.953199,122.942781 C207.839464,125.062545 205.205066,126.543528 202.349193,127.256163 L202.349193,224.686244 C202.349193,233.695238 195.048259,240.999093 186.042867,240.999093 L28.7768434,240.999093 Z" id="Fill-4" fill="#FFE1E1" mask="url(#mask-4)"></path>
                </g>
                <path d="M58.8174624,50.6676809 C57.5966377,48.7148787 57.1629407,45.2822489 57.1629407,43.6158231 C57.1629407,40.8025958 58.5300572,35.8784761 61.0273751,33.5641398 C63.4405429,31.2510994 66.7703001,29.806259 69.728502,29.806259 L69.8022952,29.806259 C73.6304803,29.8438378 77.3861668,31.1111507 81.176808,33.6380016 C86.8537075,37.3673744 92.1978902,47.5214276 95.8784889,54.9711024 C97.1964099,57.5329404 98.2981297,60.1790069 99.1771753,62.8172984 C99.7726995,64.6068271 98.2424611,66.402835 96.3730329,66.1618123 C81.4214908,64.2439973 71.5370832,60.7271391 65.6142063,56.9990622 C62.1834689,54.7870958 60.0473494,52.6217789 58.8174624,50.6676809 M124.277227,47.9192446 C127.383015,43.4758745 131.02607,36.1739233 134.818006,33.6380016 C138.571103,31.1111507 142.372101,29.8438378 146.200286,29.806259 L146.236536,29.806259 C149.409644,29.806259 152.441639,31.0748677 154.540215,32.9162293 C156.64138,34.7951697 157.75993,38.1915165 157.75993,40.6159976 C157.684842,43.4758745 156.242637,50.0197704 149.557231,54.8985364 C143.807833,59.0944047 134.142215,63.4159677 119.659325,66.6360828 C117.694095,67.0727745 116.026627,65.1873549 116.650633,63.2721315 C118.393189,57.9139118 121.016085,52.5207049 124.277227,47.9192446 M198.999983,109.140307 L198.870521,72.5890844 C198.865342,71.1636813 197.710543,70.0129923 196.287758,70.0129923 L158.465496,70.0129923 C155.966884,70.0129923 154.97909,66.8330476 156.9974,65.3596991 L157.066014,65.3104579 C165.887541,58.9894432 170.575352,50.9553532 170.539103,43.0054915 C170.539103,36.4978785 167.468269,27.1679675 162.992775,23.2636589 C158.517281,19.3204756 152.552976,17.0048435 146.200286,17.0048435 C139.403542,17.0048435 133.088396,19.3567586 127.670421,22.9759866 C119.541515,28.4365762 113.179762,40.2194764 108.668019,49.2241363 C108.418158,49.6958152 108.195484,50.131211 107.983166,50.5575361 C106.318288,47.0860317 104.368593,40.1080358 102.166448,36.9708532 C98.3382629,31.4726848 93.7151824,26.5952146 88.2972065,22.9759866 C82.877936,19.3567586 76.5899768,17.0048435 69.8022952,17.0048435 C63.0430952,17.0437182 56.8392862,19.8647204 52.2149111,24.2432995 C47.6203122,28.5752291 44.3734105,38.3392401 44.3734105,45.2822489 C44.3358666,49.3627892 45.5282097,53.6299277 47.9517344,57.4979533 C49.7525479,60.3435761 52.1721887,62.9727969 55.2300762,65.3558117 C57.1901277,66.8835846 56.1699688,70.0129923 53.6843024,70.0129923 L19.5840671,70.0129923 C18.1548089,70.0129923 16.9961259,71.1740479 17.0000097,72.60593 L17.0971061,109.157152 C17.1009899,110.582555 18.2570837,111.735836 19.6811634,111.735836 L26.875355,111.735836 C28.302024,111.735836 29.4581177,112.893004 29.4581177,114.322295 L29.4581177,222.418385 C29.4581177,223.847675 30.6155061,225.004844 32.0408804,225.004844 L112.348618,225.004844 L119.414642,225.004844 L184.071744,225.004844 C185.499707,225.004844 186.655801,223.847675 186.655801,222.418385 L186.655801,114.322295 C186.655801,112.893004 187.813189,111.735836 189.238564,111.735836 L196.415925,111.735836 C197.847773,111.735836 199.005161,110.572189 198.999983,109.140307" id="Fill-7" fill="#EF5870"></path>
                <path d="M150.734608,23.6789679 C148.688231,23.2734797 146.543109,23.2110969 144.459054,23.4203392 L144.329125,22.1271959 C146.539211,21.9062568 148.815561,21.9764374 150.98537,22.4040195 L150.734608,23.6789679 Z M78.5488472,24.7888617 C76.5128652,24.0597628 74.4392039,23.5931915 72.3863312,23.4021442 L72.5071649,22.1077012 C74.6678783,22.3091457 76.8480811,22.7991105 78.9867067,23.5658991 L78.5488472,24.7888617 Z M60.3341495,26.1300918 L59.6624183,25.016299 C61.606151,23.8427227 63.687608,22.9979557 65.8470222,22.5053916 L66.136763,23.7712424 C64.1124747,24.2339148 62.159647,25.0266962 60.3341495,26.1300918 Z M132.601765,27.637676 L131.915742,26.5329807 C133.859474,25.3256137 135.857777,24.3443843 137.857379,23.6165851 L138.301735,24.8395478 C136.385287,25.534856 134.46754,26.4757965 132.601765,27.637676 Z M161.209456,29.9055505 C160.692339,29.1192674 160.175223,28.4967391 159.668502,28.054861 C158.72392,27.2256896 157.692287,26.4874932 156.599587,25.8623657 L157.245332,24.7342768 C158.41469,25.4035922 159.517784,26.1924746 160.523432,27.0775305 C161.117206,27.5947878 161.713579,28.3069914 162.29436,29.1920473 L161.209456,29.9055505 Z M89.3874953,31.3637483 C88.0791138,30.2226631 86.7187608,29.1790509 85.3454149,28.261504 C84.9842133,28.0210703 84.6217124,27.7884344 84.2592114,27.5648961 L84.9413368,26.4589011 C85.3168306,26.6902373 85.6910252,26.930671 86.066519,27.1802022 C87.4866391,28.1289405 88.8911679,29.2063434 90.2411265,30.3838186 L89.3874953,31.3637483 Z M52.7203305,35.7552371 L51.502899,35.3003626 C52.3838152,32.9389139 53.4414345,30.8919785 54.5627187,29.3804953 L55.6060458,30.1550817 C54.5575216,31.5690917 53.5583703,33.5055576 52.7203305,35.7552371 Z M123.667871,36.5948056 L122.610252,35.8384142 C124.006985,33.8798544 125.408915,32.1630279 126.775764,30.7373211 L127.71255,31.6353734 C126.389876,33.018192 125.028224,34.6856321 123.667871,36.5948056 Z M97.8107698,40.9603015 C97.7549005,40.8719259 97.7003305,40.7887488 97.6470597,40.71207 C96.4530154,38.9991424 95.1940068,37.3823883 93.9051145,35.9020966 L94.8847766,35.0482321 C96.2035524,36.5636142 97.4911453,38.2193575 98.7111754,39.9660757 C98.7761397,40.0596499 98.8437026,40.1623216 98.9125648,40.2727911 L97.8107698,40.9603015 Z M165.108614,41.850556 C164.955299,39.917989 164.512242,37.7722808 163.828817,35.6434679 L165.065738,35.2457776 C165.780345,37.4681647 166.244191,39.7165446 166.404003,41.7478843 L165.108614,41.850556 Z M117.001232,47.6430583 L115.853962,47.0348261 C116.973947,44.9255079 118.017274,43.0618219 119.046309,41.3358979 L120.163695,42.0013144 C119.145054,43.7090434 118.110822,45.5545344 117.001232,47.6430583 Z M49.6670071,48.3747565 C49.5253849,47.5000978 49.4526249,46.6150419 49.4526249,45.7455817 L49.4539241,45.5961229 C49.4539241,44.399153 49.5682614,43.0839158 49.7956365,41.6958986 L51.0780323,41.9051409 C50.8623507,43.2242771 50.7532107,44.4693337 50.7532107,45.6052204 L50.7519114,45.7455817 C50.7519114,46.5474605 50.8194743,47.3610361 50.9494029,48.1668139 L49.6670071,48.3747565 Z M102.711679,52.8936102 C102.056838,51.4393113 101.425385,49.7315823 100.756252,47.9224813 L100.339181,46.7982913 L101.556613,46.3447164 L101.974983,47.4728053 C102.635021,49.2598124 103.261277,50.9467472 103.896628,52.3607572 L102.711679,52.8936102 Z M162.594495,54.3427105 L161.540774,53.5811206 C162.847856,51.7720195 163.815824,49.8992361 164.419992,48.0160555 L165.656913,48.4111465 C165.012467,50.4255909 163.982133,52.4218403 162.594495,54.3427105 Z M108.488306,56.9523907 L108.188171,56.9445929 L108.254435,55.646251 L108.450627,55.6527492 C110.3203,55.6527492 111.966496,54.6338302 112.785047,52.9962819 L112.869501,52.8260288 L114.032362,53.4069686 L113.946609,53.5798209 C112.90718,55.6579478 110.815329,56.9523907 108.488306,56.9523907 Z M56.1296583,59.8583892 C54.6107923,58.4066896 53.3206008,56.8510187 52.2993616,55.2368639 C52.1798273,55.0484159 52.0680886,54.8599679 51.9576493,54.6702202 L53.0802328,54.0165005 C53.1828765,54.1932517 53.2881187,54.3687034 53.398558,54.544155 C54.3626286,56.0673349 55.5839579,57.5398287 57.0274653,58.9187484 L56.1296583,59.8583892 Z M153.276012,63.3375297 L152.239181,62.5525462 C152.736808,61.8936279 153.325385,61.3165871 153.988021,60.8357197 L154.198505,60.6797627 C155.28341,59.9025771 156.311145,59.0851025 157.254427,58.2520323 L158.115854,59.2254638 C157.14009,60.0884258 156.074675,60.9331928 154.953391,61.7363713 L154.763695,61.8780322 C154.192009,62.2926179 153.695682,62.7812831 153.276012,63.3375297 Z M62.2428014,70.5037532 L61.0071799,70.098265 C61.2540443,69.3509711 61.3787758,68.5724858 61.3787758,67.7862027 C61.3787758,66.577536 61.0786406,65.374068 60.513451,64.304463 L61.660721,63.6962307 C62.3259557,64.9529841 62.6780623,66.3669941 62.6780623,67.7862027 C62.6780623,68.7089482 62.5299437,69.6251955 62.2428014,70.5037532 Z M154.264769,74.9589244 C152.699129,73.8893194 151.51288,72.3050563 150.924303,70.4959553 C150.78398,70.0696729 150.677439,69.6290944 150.604679,69.1898155 L151.888374,68.9792736 C151.94944,69.3561697 152.040391,69.7304664 152.158626,70.0930664 C152.665347,71.6526363 153.647608,72.9639746 154.996267,73.8854205 L154.264769,74.9589244 Z M25.0897033,76.4626096 L31.5861359,76.4626096 L31.5861359,75.1629681 L25.0897033,75.1629681 L25.0897033,76.4626096 Z M38.0825685,76.4626096 L44.5790011,76.4626096 L44.5790011,75.1629681 L38.0825685,75.1629681 L38.0825685,76.4626096 Z M53.9949305,76.4626096 L51.0754337,76.4626096 L51.0754337,75.1629681 L53.9949305,75.1629681 C55.1214119,75.1629681 56.1946226,74.9290326 57.1846789,74.4624613 L57.7368757,75.6386369 C56.572715,76.185786 55.3137063,76.4626096 53.9949305,76.4626096 Z M160.845655,76.4626096 L167.342088,76.4626096 L167.342088,75.1629681 L160.845655,75.1629681 L160.845655,76.4626096 Z M173.83852,76.4626096 L180.334953,76.4626096 L180.334953,75.1629681 L173.83852,75.1629681 L173.83852,76.4626096 Z M186.831386,76.4626096 L193.327818,76.4626096 L193.327818,75.1629681 L186.831386,75.1629681 L186.831386,76.4626096 Z M22.01819,86.35938 L22,79.8611723 L23.2992865,79.858573 L23.3174765,86.3567807 L22.01819,86.35938 Z M193.655238,87.8773614 L193.633151,81.3791536 L194.932437,81.3752547 L194.954525,87.8734624 L193.655238,87.8773614 Z M22.0519715,99.3557955 L22.0337814,92.8575878 L23.333068,92.8549885 L23.351258,99.3531962 L22.0519715,99.3557955 Z M193.700713,100.872477 L193.678626,94.3742694 L194.977912,94.3703705 L195,100.868578 L193.700713,100.872477 Z M28.2144874,107.487653 C27.84549,107.430468 27.4673977,107.401876 27.0893053,107.401876 L22.0740593,107.401876 L22.0701615,105.854003 L23.369448,105.851404 L23.369448,106.102235 L27.0893053,106.102235 C27.5336613,106.102235 27.9793166,106.136025 28.411979,106.203607 L28.2144874,107.487653 Z M187.5343,107.838556 L187.093842,106.615593 C188.038423,106.275087 189.028479,106.102235 190.039324,106.102235 L193.755284,106.102235 L193.755284,107.401876 L190.039324,107.401876 C189.179196,107.401876 188.335959,107.548736 187.5343,107.838556 Z M35.7828314,116.383699 L34.4835449,116.383699 L34.4835449,114.799436 C34.4835449,113.272357 34.0222982,111.807661 33.146579,110.561305 L34.2093954,109.814011 C35.2384303,111.280007 35.7828314,113.004631 35.7828314,114.799436 L35.7828314,116.383699 Z M182.642486,117.932872 L181.343199,117.932872 L181.343199,114.799436 C181.343199,113.571275 181.595261,112.384702 182.091588,111.26831 L183.277837,111.798564 C182.856868,112.744703 182.642486,113.755824 182.642486,114.799436 L182.642486,117.932872 Z M34.4835449,129.380115 L35.7828314,129.380115 L35.7828314,122.881907 L34.4835449,122.881907 L34.4835449,129.380115 Z M181.343199,130.929287 L182.642486,130.929287 L182.642486,124.431079 L181.343199,124.431079 L181.343199,130.929287 Z M34.4835449,142.37653 L35.7828314,142.37653 L35.7828314,135.878322 L34.4835449,135.878322 L34.4835449,142.37653 Z M181.343199,143.925703 L182.642486,143.925703 L182.642486,137.427495 L181.343199,137.427495 L181.343199,143.925703 Z M34.4835449,155.372945 L35.7828314,155.372945 L35.7828314,148.874738 L34.4835449,148.874738 L34.4835449,155.372945 Z M181.343199,156.922118 L182.642486,156.922118 L182.642486,150.42391 L181.343199,150.42391 L181.343199,156.922118 Z M34.4835449,168.369361 L35.7828314,168.369361 L35.7828314,161.871153 L34.4835449,161.871153 L34.4835449,168.369361 Z M181.343199,169.918534 L182.642486,169.918534 L182.642486,163.420326 L181.343199,163.420326 L181.343199,169.918534 Z M34.4835449,181.365776 L35.7828314,181.365776 L35.7828314,174.867569 L34.4835449,174.867569 L34.4835449,181.365776 Z M181.343199,182.914949 L182.642486,182.914949 L182.642486,176.416741 L181.343199,176.416741 L181.343199,182.914949 Z M34.4835449,194.362192 L35.7828314,194.362192 L35.7828314,187.863984 L34.4835449,187.863984 L34.4835449,194.362192 Z M181.343199,195.911365 L182.642486,195.911365 L182.642486,189.413157 L181.343199,189.413157 L181.343199,195.911365 Z M34.4835449,207.358607 L35.7828314,207.358607 L35.7828314,200.8604 L34.4835449,200.8604 L34.4835449,207.358607 Z M181.343199,208.90778 L182.642486,208.90778 L182.642486,202.409572 L181.343199,202.409572 L181.343199,208.90778 Z M34.4835449,220.355023 L35.7828314,220.355023 L35.7828314,213.856815 L34.4835449,213.856815 L34.4835449,220.355023 Z M37.5212768,221.004844 L44.0177094,221.004844 L44.0177094,219.705202 L37.5212768,219.705202 L37.5212768,221.004844 Z M50.5141419,221.004844 L57.0105745,221.004844 L57.0105745,219.705202 L50.5141419,219.705202 L50.5141419,221.004844 Z M63.5070071,221.004844 L70.0034397,221.004844 L70.0034397,219.705202 L63.5070071,219.705202 L63.5070071,221.004844 Z M76.4998723,221.004844 L82.9963049,221.004844 L82.9963049,219.705202 L76.4998723,219.705202 L76.4998723,221.004844 Z M89.4927375,221.004844 L95.9891701,221.004844 L95.9891701,219.705202 L89.4927375,219.705202 L89.4927375,221.004844 Z M102.485603,221.004844 L108.982035,221.004844 L108.982035,219.705202 L102.485603,219.705202 L102.485603,221.004844 Z M115.478468,221.004844 L121.9749,221.004844 L121.9749,219.705202 L115.478468,219.705202 L115.478468,221.004844 Z M128.471333,221.004844 L134.967766,221.004844 L134.967766,219.705202 L128.471333,219.705202 L128.471333,221.004844 Z M141.464198,221.004844 L147.960631,221.004844 L147.960631,219.705202 L141.464198,219.705202 L141.464198,221.004844 Z M154.457063,221.004844 L160.953496,221.004844 L160.953496,219.705202 L154.457063,219.705202 L154.457063,221.004844 Z M167.449929,221.004844 L173.946361,221.004844 L173.946361,219.705202 L167.449929,219.705202 L167.449929,221.004844 Z M182.642486,221.004844 L180.442794,221.004844 L180.442794,219.705202 L181.343199,219.705202 L181.343199,215.405988 L182.642486,215.405988 L182.642486,221.004844 Z" id="Fill-9" fill="#FFFFFF"></path>
            </g>
            <path d="M77.407666,143.752 L88.439666,143.752 L88.439666,152.768 L77.407666,152.768 L77.407666,143.752 Z M86.031666,150.472 L86.031666,146.076 L79.787666,146.076 L79.787666,150.472 L86.031666,150.472 Z M65.311666,134.624 L69.371666,134.624 L69.371666,131.012 L71.919666,131.012 L71.919666,134.624 L75.923666,134.624 L75.923666,136.976 L71.919666,136.976 L71.919666,140.56 L75.755666,140.56 L75.755666,142.968 L72.507666,142.968 L72.507666,146.356 L75.895666,146.356 L75.895666,148.764 L72.507666,148.764 L72.507666,153.076 C72.619666,153.104 72.703666,153.132 72.815666,153.188 C74.439666,153.748 78.219666,154.028 84.155666,154.028 C86.703666,154.028 88.607666,153.972 89.839666,153.888 L89.391666,156.52 L84.743666,156.52 C77.575666,156.52 73.067666,156.1 71.247666,155.316 C69.847666,154.672 68.615666,153.608 67.523666,152.124 C67.159666,153.804 66.683666,155.372 66.123666,156.884 L64.191666,155.176 C65.311666,151.956 65.955666,148.4 66.095666,144.48 L68.363666,144.76 C68.307666,146.216 68.223666,147.588 68.055666,148.904 C68.643666,149.912 69.287666,150.78 70.015666,151.452 L70.015666,142.968 L65.059666,142.968 L65.059666,140.56 L69.371666,140.56 L69.371666,136.976 L65.311666,136.976 L65.311666,134.624 Z M80.263666,134.652 L76.679666,134.652 L76.679666,132.188 L88.859666,132.188 C88.831666,137.172 88.551666,140.14 88.047666,141.12 C87.515666,142.1 86.619666,142.604 85.331666,142.604 C84.743666,142.604 84.043666,142.548 83.203666,142.464 L82.559666,140.14 C83.455666,140.224 84.183666,140.28 84.771666,140.336 C85.443666,140.308 85.835666,139.972 86.003666,139.356 C86.171666,138.768 86.283666,137.2 86.311666,134.652 L82.727666,134.652 C82.363666,136.528 81.887666,138.04 81.299666,139.16 C80.515666,140.56 79.339666,141.792 77.827666,142.884 L76.091666,140.7 C77.379666,139.86 78.387666,138.908 79.059666,137.872 C79.563666,137.032 79.983666,135.968 80.263666,134.652 Z M101.993222,136.136 L117.449222,136.136 L117.197222,138.628 L121.397222,138.628 L121.397222,140.756 L117.001222,140.756 L116.777222,143.248 L100.929222,143.248 L101.293222,140.756 L97.345222,140.756 L97.345222,138.628 L101.629222,138.628 L101.993222,136.136 Z M103.533222,141.708 L107.817222,141.708 L108.013222,140.476 L103.729222,140.476 L103.533222,141.708 Z M110.337222,140.476 L110.141222,141.708 L114.509222,141.708 L114.649222,140.476 L110.337222,140.476 Z M103.981222,138.964 L108.265222,138.964 L108.461222,137.704 L104.205222,137.704 L103.981222,138.964 Z M110.813222,137.704 L110.589222,138.964 L114.845222,138.964 L114.985222,137.704 L110.813222,137.704 Z M100.845222,144.256 L117.897222,144.256 L117.897222,153.412 L114.481222,153.412 C116.637222,153.804 118.709222,154.308 120.725222,154.924 L119.885222,157.024 C117.197222,156.016 114.369222,155.204 111.429222,154.644 L112.073222,153.412 L106.445222,153.412 L107.313222,154.588 C105.353222,155.596 102.525222,156.408 98.829222,157.024 L97.625222,154.98 C100.621222,154.532 103.029222,154.028 104.849222,153.412 L100.845222,153.412 L100.845222,144.256 Z M115.405222,151.76 L115.405222,150.696 L103.337222,150.696 L103.337222,151.76 L115.405222,151.76 Z M103.337222,149.296 L115.405222,149.296 L115.405222,148.26 L103.337222,148.26 L103.337222,149.296 Z M103.337222,146.86 L115.405222,146.86 L115.405222,145.768 L103.337222,145.768 L103.337222,146.86 Z M121.033222,132.888 L121.033222,137.732 L118.541222,137.732 L118.541222,135.016 L100.173222,135.016 L100.173222,137.732 L97.681222,137.732 L97.681222,132.888 L108.013222,132.888 C107.789222,132.328 107.565222,131.796 107.313222,131.32 L109.973222,130.872 C110.225222,131.488 110.477222,132.16 110.729222,132.888 L121.033222,132.888 Z M133.970778,141.204 L133.970778,145.488 L140.410778,145.488 L140.410778,141.204 L133.970778,141.204 Z M133.830778,147.952 C133.494778,151.48 132.458778,154.392 130.722778,156.688 L128.678778,154.868 C130.358778,152.46 131.226778,149.408 131.282778,145.712 L131.282778,131.992 L152.758778,131.992 L152.758778,153.076 C152.758778,155.176 151.666778,156.24 149.538778,156.24 L146.318778,156.24 L145.618778,153.636 C146.710778,153.72 147.718778,153.776 148.670778,153.776 C149.566778,153.776 150.042778,153.216 150.042778,152.124 L150.042778,147.952 L143.098778,147.952 L143.098778,155.932 L140.410778,155.932 L140.410778,147.952 L133.830778,147.952 Z M150.042778,145.488 L150.042778,141.204 L143.098778,141.204 L143.098778,145.488 L150.042778,145.488 Z M150.042778,138.768 L150.042778,134.568 L143.098778,134.568 L143.098778,138.768 L150.042778,138.768 Z M140.410778,134.568 L133.970778,134.568 L133.970778,138.768 L140.410778,138.768 L140.410778,134.568 Z" id="超實用" fill="#FFFFFF"></path>
        </g>
    </g>
</svg>