<?xml version="1.0" encoding="UTF-8"?>
<svg width="155px" height="125px" viewBox="0 0 155 125" version="1.1" xmlns="http://www.w3.org/2000/svg" xmlns:xlink="http://www.w3.org/1999/xlink">
    <!-- Generator: Sketch 52.3 (67297) - http://www.bohemiancoding.com/sketch -->
    <title>Group 8</title>
    <desc>Created with Sketch.</desc>
    <g id="web" stroke="none" stroke-width="1" fill="none" fill-rule="evenodd">
        <g id="Group-8" transform="translate(0.000000, -0.000000)">
            <polygon id="Fill-1" fill="#8DB09E" opacity="0.333682106" points="3 72 3 75.1792411 29.6766325 75.1792411 124.985595 121.985382 92.8765685 122.014145 98.8903969 125 155 125 47.5800576 72"></polygon>
            <polygon id="Fill-2" fill="#40251C" points="2 75 6 75 6 1 2 1"></polygon>
            <polygon id="Fill-3" fill="#A89174" points="0 0 0 20.4253032 93 71 93 50.5746968"></polygon>
            <polygon id="Fill-4" fill="#968166" points="0 0 92.9800566 51 98 51 5.01994341 0"></polygon>
            <polygon id="Fill-5" fill="#40251C" points="91 122.618681 93.6873849 124 99 124 99 50.3819248 96.343372 49.0139283 91 49"></polygon>
            <polygon id="Fill-6" fill="#40251C" points="0 0 2.68738486 1 8 1 5.31261514 0"></polygon>
            <polygon id="Fill-7" fill="#40251C" points="0 75 3 75 3 0 0 0"></polygon>
        </g>
    </g>
</svg>