<svg xmlns="http://www.w3.org/2000/svg" viewBox="0 0 90.44 62.29"><defs><style>.cls-1{fill:#ff7529;}.cls-2{fill:#e05212;}.cls-2,.cls-4{opacity:0.5;}.cls-3{fill:#ffcd2e;}.cls-4{fill:#e8b21a;}.cls-5{fill:#130408;stroke:#fff;stroke-miterlimit:10;stroke-width:0.21px;}</style></defs><title>sound</title><g id="圖層_2" data-name="圖層 2"><g id="OBJECTS"><polygon class="cls-1" points="36.33 40.09 36.33 52.93 45.23 52.93 45.23 33.11 36.33 33.11 36.33 40.09"/><rect class="cls-2" x="40.78" y="33.11" width="4.46" height="19.82"/><path class="cls-1" d="M86.91,42.66,45.79,34.27V13L86.91,0A60.59,60.59,0,0,1,88.8,7.17C90.52,15.44,92.08,29.57,86.91,42.66Z"/><path class="cls-3" d="M45.79,13V34.47H35.48S32.1,31.93,32.1,23.75c0-.23,0-.44,0-.66v0A20.27,20.27,0,0,1,35.48,13Z"/><path class="cls-2" d="M83.6,42,45.79,34.27V28c1.11,0,31.89-.5,40.55-16.09C88,22,87.37,32.69,83.6,42Z"/><path class="cls-4" d="M45.79,28v6.52H35.48S32.1,31.93,32.1,23.75c0-.23,0-.44,0-.66C33.37,30.05,45.79,28,45.79,28Z"/><path class="cls-5" d="M34.31,62.14c-.59,0-1.13,0-1.59,0A128.86,128.86,0,0,1,.49,58.77c-.14,0-.31-.09-.37-.23a.52.52,0,0,1,.09-.41L2.6,53.86c.7-1.24,1.57-2.61,3-2.86a5.19,5.19,0,0,1,2.85.66c6.29,2.71,14.44,4.58,21.1,2.26,2.66-.92,2.13-.67,3.21-2.9.44-.91,1.69-7.15,3.6-5.83a3.31,3.31,0,0,1,1.24,2.91h0a10,10,0,0,1-.81,3.09c2.48.25,7.35-2.08,8.62,1l-1.84,2.27c.83-1,3.37,2.4.42,3.66,2.35-1,3.24,1,1.59,2.45C43.43,62.45,37.87,62.19,34.31,62.14Z"/></g></g></svg>